<svg xmlns="http://www.w3.org/2000/svg" xmlns:xlink="http://www.w3.org/1999/xlink" width="544pt" height="290pt" viewBox="0 0 544 290"><clipPath id="a"><path transform="matrix(1 0 0 -1 0 290)" d="M0 0h544v290H0z"/></clipPath><g clip-path="url(#a)"><symbol id="b"><path d="m.375.134.168.43a.625.625 0 0 1 .015.054.023.023 0 0 1-.005.015.034.034 0 0 1-.016.01.633.633 0 0 1-.073.012.091.091 0 0 0 0 .03A3.158 3.158 0 0 0 .602.683a1.496 1.496 0 0 1 .113.002.094.094 0 0 0 0-.03.417.417 0 0 1-.046-.008.065.065 0 0 1-.03-.014.108.108 0 0 1-.024-.031.646.646 0 0 1-.026-.059L.368.008A.16.16 0 0 0 .325 0l-.21.552A1.026 1.026 0 0 1 .087.62a.06.06 0 0 1-.03.026.741.741 0 0 1-.055.01.094.094 0 0 0 0 .03A2.676 2.676 0 0 0 .146.683a2.75 2.75 0 0 1 .141.002.091.091 0 0 0 0-.03.716.716 0 0 1-.072-.01A.035.035 0 0 1 .2.636.02.02 0 0 1 .195.622L.198.604A.65.65 0 0 1 .207.58L.375.134z"/></symbol><symbol id="c"><path d="m.292.31.001.015c0 .033-.008.06-.025.08a.082.082 0 0 1-.069.032.099.099 0 0 1-.074-.033.174.174 0 0 1-.04-.096L.292.31M.082.272c0-.067.014-.118.043-.153A.146.146 0 0 1 .243.067.23.23 0 0 1 .371.11.091.091 0 0 0 .385.087.239.239 0 0 0 .202 0C.14 0 .092.021.055.063A.242.242 0 0 0 0 .228c0 .071.02.13.058.176.039.045.09.068.154.068A.164.164 0 0 0 .337.424.177.177 0 0 0 .383.297c0-.011 0-.02-.002-.027L.082.272z"/></symbol><symbol id="d"><path d="M.157.462V.376C.2.434.245.462.29.462.307.462.32.458.333.45A.043.043 0 0 0 .351.413.048.048 0 0 0 .335.375.052.052 0 0 0 .298.361C.275.36.257.37.243.393a.082.082 0 0 1-.06-.025.079.079 0 0 1-.025-.059V.108c0-.018 0-.032.002-.043A.037.037 0 0 1 .17.042a.049.049 0 0 1 .026-.01A.814.814 0 0 1 .244.03a.11.11 0 0 0 0-.029 2.21 2.21 0 0 0-.13.002A1.606 1.606 0 0 1 .001 0a.107.107 0 0 0 0 .029.367.367 0 0 1 .038.004c.01.001.017.004.022.009a.033.033 0 0 1 .01.02l.002.036v.21c0 .019 0 .033-.002.044 0 .011-.003.02-.008.026a.036.036 0 0 1-.02.014.255.255 0 0 1-.04.008.064.064 0 0 0 0 .025c.05.01.098.023.144.041l.01-.004z"/></symbol><symbol id="e"><path d="M.075.006c.002.022.002.059.002.11v.475L.076.635c0 .01-.004.019-.008.025a.039.039 0 0 1-.022.014.264.264 0 0 1-.044.008.064.064 0 0 0 0 .025.639.639 0 0 1 .152.042l.01-.004A2.235 2.235 0 0 1 .162.642V.406A.22.22 0 0 0 .315.47a.163.163 0 0 0 .13-.063.234.234 0 0 0 .053-.156C.498.182.475.122.43.073A.22.22 0 0 0 .26 0a.298.298 0 0 0-.14.035.202.202 0 0 1-.024-.033.085.085 0 0 0-.022.004m.086.079a.144.144 0 0 1 .11-.047.12.12 0 0 1 .103.05.218.218 0 0 1 .036.13.249.249 0 0 1-.036.14.117.117 0 0 1-.104.054.153.153 0 0 1-.109-.046V.085z"/></symbol><symbol id="f"><path d="M0 0z"/></symbol><symbol id="g"><path d="M.098.559c0 .02-.001.035-.003.046a.039.039 0 0 1-.01.025.051.051 0 0 1-.029.012.588.588 0 0 1-.051.006.094.094 0 0 0 0 .03A3.412 3.412 0 0 0 .147.676a51.938 51.938 0 0 1 .37.002 5.66 5.66 0 0 1 .021-.16.105.105 0 0 0-.03 0 .207.207 0 0 1-.06.091C.426.63.389.638.339.638H.195V.363h.07c.023 0 .042 0 .056.003a.075.075 0 0 1 .036.013c.01.007.016.017.02.031A.303.303 0 0 1 .39.467H.42A8.248 8.248 0 0 0 .419.34 4.892 4.892 0 0 1 .42.213a.125.125 0 0 0-.032 0 .318.318 0 0 1-.012.06.066.066 0 0 1-.02.033.061.061 0 0 1-.033.013.366.366 0 0 1-.051.003h-.08V.12L.196.073A.039.039 0 0 1 .207.047a.058.058 0 0 1 .03-.01A.919.919 0 0 1 .294.03a.094.094 0 0 0 0-.03 3.828 3.828 0 0 0-.15.002A2.904 2.904 0 0 1 .002 0a.091.091 0 0 0 0 .03l.054.006a.06.06 0 0 1 .028.01C.09.05.094.058.095.067a.25.25 0 0 1 .003.04V.56z"/></symbol><symbol id="h"><path d="M.224 0A.213.213 0 0 0 .06.065.236.236 0 0 0 0 .23c0 .073.021.13.064.175.043.044.1.066.168.066A.212.212 0 0 0 .395.407.233.233 0 0 0 .456.241.242.242 0 0 0 .392.067.22.22 0 0 0 .224 0M.097.243C.097.179.107.128.13.09A.108.108 0 0 1 .23.035c.042 0 .074.018.097.052A.26.26 0 0 1 .359.23a.291.291 0 0 1-.033.152.107.107 0 0 1-.098.056A.11.11 0 0 1 .13.385.26.26 0 0 1 .097.243z"/></symbol><symbol id="i"><path d="M.305.042A.203.203 0 0 0 .18 0a.122.122 0 0 0-.083.027.098.098 0 0 0-.03.077A7.584 7.584 0 0 0 .07.406h-.07a.064.064 0 0 0 0 .025c.06.026.103.07.13.128.01 0 .02 0 .028-.002A2.194 2.194 0 0 1 .156.449h.143a.158.158 0 0 0 0-.043H.156A28.306 28.306 0 0 1 .153.128C.153.103.161.084.175.07a.088.088 0 0 1 .06-.019c.022 0 .043.005.062.015A.1.1 0 0 0 .305.042z"/></symbol><symbol id="j"><path d="M0 .066a.065.065 0 0 0 .113.046.066.066 0 0 0 0-.092A.063.063 0 0 0 .065 0a.062.062 0 0 0-.047.02A.067.067 0 0 0 0 .066M0 .39a.065.065 0 0 0 .113.046.066.066 0 0 0 0-.092.063.063 0 0 0-.048-.02.062.062 0 0 0-.047.02A.067.067 0 0 0 0 .39z"/></symbol><symbol id="k"><path d="M.599.198V.166a.77.77 0 0 1 .006-.12A.78.78 0 0 0 .355 0a.36.36 0 0 0-.26.092A.333.333 0 0 0 0 .344c0 .108.032.195.095.26.064.065.15.098.261.098A.604.604 0 0 0 .541.674.129.129 0 0 1 .594.672C.595.616.598.555.604.49A.111.111 0 0 0 .57.488a.233.233 0 0 1-.073.134.217.217 0 0 1-.14.042A.221.221 0 0 1 .174.58.368.368 0 0 1 .11.35C.11.253.133.177.18.123A.243.243 0 0 1 .375.04a.35.35 0 0 1 .13.025v.12c0 .02 0 .035-.002.046A.038.038 0 0 1 .49.258a.065.065 0 0 1-.032.011.785.785 0 0 1-.06.006.094.094 0 0 0 0 .03A3.96 3.96 0 0 0 .552.305a2.384 2.384 0 0 1 .13.002.091.091 0 0 0 0-.03A.746.746 0 0 1 .634.27.05.05 0 0 1 .61.26.033.033 0 0 1 .6.237.312.312 0 0 1 .6.198z"/></symbol><symbol id="l"><path d="M.409.07A.05.05 0 0 0 .417.051a.139.139 0 0 0-.05-.038.126.126 0 0 0-.05-.012c-.038 0-.061.021-.07.063A.191.191 0 0 0 .112 0c-.033 0-.06.01-.08.028A.098.098 0 0 0 0 .104c0 .043.02.078.06.103.04.026.103.044.188.054l.001.095a.06.06 0 0 1-.024.052.099.099 0 0 1-.062.019A.105.105 0 0 1 .12.419.11.11 0 0 0 .099.35C.085.333.069.324.049.324a.037.037 0 0 0-.027.01.037.037 0 0 0-.01.027c0 .027.022.053.065.076a.295.295 0 0 0 .132.034C.246.47.278.46.3.44A.101.101 0 0 0 .335.357L.331.09C.331.07.34.06.357.06.37.059.387.063.41.07M.248.228A.274.274 0 0 1 .125.191.079.079 0 0 1 .092.125c0-.021.005-.038.017-.048A.065.065 0 0 1 .155.06C.177.06.208.07.246.088l.002.14z"/></symbol><symbol id="m"><path d="M.42.146.421.102A.057.057 0 0 1 .43.076.037.037 0 0 1 .45.062.255.255 0 0 1 .49.054a.07.07 0 0 0 0-.026A1.032 1.032 0 0 1 .35 0L.34.004l-.002.07a.204.204 0 0 0-.15-.072c-.055 0-.1.021-.135.063A.236.236 0 0 0 0 .22C0 .294.022.354.066.4a.222.222 0 0 0 .17.072.333.333 0 0 0 .1-.015v.138c0 .018 0 .032-.002.042 0 .01-.003.018-.008.025a.039.039 0 0 1-.021.014.265.265 0 0 1-.045.008.064.064 0 0 0 0 .024.655.655 0 0 1 .154.042l.01-.004A5.008 5.008 0 0 1 .42.634V.146M.336.379a.133.133 0 0 1-.11.057C.18.436.146.42.123.388A.22.22 0 0 1 .088.256C.088.198.1.15.124.116A.119.119 0 0 1 .229.06c.046 0 .082.018.107.054v.264z"/></symbol><use xlink:href="#b" transform="matrix(12 0 0 -12 209.889 18.035)"/><use xlink:href="#c" transform="matrix(12 0 0 -12 218.475 18.076)"/><use xlink:href="#d" transform="matrix(12 0 0 -12 223.755 17.959)"/><use xlink:href="#e" transform="matrix(12 0 0 -12 227.988 18.059)"/><use xlink:href="#c" transform="matrix(12 0 0 -12 234.782 18.076)"/><use xlink:href="#f" transform="matrix(12 0 0 -12 239.762 17.953)"/><use xlink:href="#g" transform="matrix(12 0 0 -12 243.24 17.959)"/><use xlink:href="#h" transform="matrix(12 0 0 -12 250.302 18.076)"/><use xlink:href="#d" transform="matrix(12 0 0 -12 256.475 17.959)"/><use xlink:href="#i" transform="matrix(12 0 0 -12 260.895 18.059)"/><use xlink:href="#f" transform="matrix(12 0 0 -12 264.641 17.953)"/><use xlink:href="#j" transform="matrix(12 0 0 -12 268.942 18.059)"/><use xlink:href="#f" transform="matrix(12 0 0 -12 271.227 17.953)"/><use xlink:href="#k" transform="matrix(12 0 0 -12 275.03 18.123)"/><use xlink:href="#l" transform="matrix(12 0 0 -12 283.841 18.059)"/><use xlink:href="#d" transform="matrix(12 0 0 -12 289.199 17.959)"/><use xlink:href="#m" transform="matrix(12 0 0 -12 293.808 18.088)"/><use xlink:href="#c" transform="matrix(12 0 0 -12 300.365 18.076)"/><use xlink:href="#d" transform="matrix(12 0 0 -12 305.646 17.959)"/><use xlink:href="#f" transform="matrix(12 0 0 -12 309.851 17.953)"/><symbol id="n"><path d="M.048.566A.1.1 0 0 1 .062.543.055.055 0 0 1 .078.531.08.08 0 0 1 .1.526.367.367 0 0 1 .128.525h.145c.02 0 .04-.002.057-.006A.115.115 0 0 0 .374.498a.095.095 0 0 0 .03-.039.144.144 0 0 0 .01-.057c0-.01 0-.02-.002-.029A1.63 1.63 0 0 1 .41.314C.41.286.41.257.415.23a4.453 4.453 0 0 1 .02-.146c0-.006 0-.01-.002-.014A.6.6 0 0 1 .384 0a.123.123 0 0 0-.027 0 .588.588 0 0 0-.003.064 1.748 1.748 0 0 0-.001.198 1.82 1.82 0 0 0 .003.065C.357.356.35.378.335.393.32.408.295.416.261.416H.09L.055.417a.107.107 0 0 0-.029.006.048.048 0 0 0-.02.015A.046.046 0 0 0 0 .465.357.357 0 0 0 .016.53a.73.73 0 0 0 .01.032.044.044 0 0 0 .022.004z"/></symbol><symbol id="o"><path d="M0 .005v.016a1.098 1.098 0 0 0 .037.29.187.187 0 0 0 .02.04l.026.037a.03.03 0 0 1 .005.015.018.018 0 0 1-.005.013.06.06 0 0 1-.018.014.305.305 0 0 0-.04.025.035.035 0 0 0-.015.027c0 .005.002.012.006.02a.307.307 0 0 0 .046.073.015.015 0 0 0 .008 0A.042.042 0 0 0 .08.572C.08.565.083.56.084.554A.037.037 0 0 1 .091.54.077.077 0 0 1 .105.529L.129.516A.161.161 0 0 0 .154.498.042.042 0 0 0 .167.48a1.319 1.319 0 0 1 .094.087L.27.568h.01l.1-.05A.188.188 0 0 0 .43.487a.1.1 0 0 0 .017-.04.88.88 0 0 0 .021-.143.768.768 0 0 0-.026-.29.02.02 0 0 0-.006.001H.228A.312.312 0 0 1 .178.01.172.172 0 0 1 .158 0a.024.024 0 0 0-.018.01 1.228 1.228 0 0 0 .043.078.055.055 0 0 0 .025.022.1.1 0 0 0 .021.007.149.149 0 0 0 .029.002H.36C.374.12.384.122.39.127a.043.043 0 0 1 .016.021.1.1 0 0 1 .007.032.717.717 0 0 1-.003.1.364.364 0 0 1-.01.053.171.171 0 0 1-.016.042A.079.079 0 0 1 .363.4a.314.314 0 0 1-.067.036.322.322 0 0 1-.052.019A.09.09 0 0 1 .21.449.149.149 0 0 1 .154.412.243.243 0 0 1 .11.349.2.2 0 0 1 .097.303 3.753 3.753 0 0 1 .084.11.028.028 0 0 0 .08.097 5.782 5.782 0 0 0 .065.073L.05.048A1.944 1.944 0 0 1 .027.005a.123.123 0 0 0-.027 0z"/></symbol><symbol id="p"><path d="M.312.4.31.408a.015.015 0 0 1-.006.006 4.4 4.4 0 0 1-.061.03.05.05 0 0 0-.01.013.036.036 0 0 0-.004.016l.003.02a.25.25 0 0 0 .022.054c.004.01.009.018.014.025a.04.04 0 0 0 .01 0 .042.042 0 0 0 .012 0A.21.21 0 0 1 .293.556.033.033 0 0 1 .3.545a.085.085 0 0 1 .017-.01.295.295 0 0 1 .03-.014A.148.148 0 0 0 .38.505.022.022 0 0 0 .39.487.198.198 0 0 0 .383.44.833.833 0 0 0 .3.244 1.24 1.24 0 0 0 .217.11a1.437 1.437 0 0 1 .17.037c.017.005.03.01.041.016C.44.169.45.178.46.19A.52.52 0 0 1 .54.332a.438.438 0 0 1 .02.062c0 .005-.003.01-.008.014a.097.097 0 0 1-.029.015.49.49 0 0 0-.038.017.046.046 0 0 0-.012.012.033.033 0 0 0-.004.017l.003.024A.315.315 0 0 0 .502.57l.004.001a.039.039 0 0 0 .014 0h.004A.059.059 0 0 1 .53.554.039.039 0 0 1 .54.542 1.621 1.621 0 0 1 .584.524.13.13 0 0 0 .623.505C.63.5.635.491.635.482a.222.222 0 0 0-.01-.05.992.992 0 0 0-.06-.17A1.231 1.231 0 0 0 .521.174a.546.546 0 0 0-.044-.07.126.126 0 0 0-.042-.04A.404.404 0 0 0 .34.033 2.337 2.337 0 0 0 .232.009.904.904 0 0 0 .16 0a.108.108 0 0 0-.013.003.049.049 0 0 0-.012.005 2.384 2.384 0 0 0-.05.177.874.874 0 0 0-.015.128c0 .015.002.03.005.042a.511.511 0 0 0 .013.05.013.013 0 0 1-.004.007.05.05 0 0 1-.01.007L.056.43a8.512 8.512 0 0 0-.04.024.053.053 0 0 0-.012.012A.03.03 0 0 0 0 .481c0 .005.001.012.004.02a.533.533 0 0 0 .042.075h.011A.172.172 0 0 0 .07.573C.069.568.07.563.072.56A.027.027 0 0 1 .079.55 1.119 1.119 0 0 1 .125.526C.153.513.167.5.167.488a.05.05 0 0 0-.004-.02.452.452 0 0 0-.021-.046.248.248 0 0 1-.02-.086A.23.23 0 0 1 .125.29.742.742 0 0 1 .18.131.818.818 0 0 1 .27.28a.735.735 0 0 1 .036.09.12.12 0 0 1 .006.03z"/></symbol><use xlink:href="#n" transform="matrix(12 0 0 -12 313.273 18.082)"/><use xlink:href="#o" transform="matrix(12 0 0 -12 319.578 18.135)"/><use xlink:href="#p" transform="matrix(12 0 0 -12 326.079 18.146)"/><path d="M2 28h90v20H2zM92 28h90v20H92zM182 28h90v20h-90zM272 28h90v20h-90zM362 28h90v20h-90zM452 28h90v20h-90z" fill="#bec0bf"/><path d="M2 48h90v20H2z" fill="#dcdcdc"/><path d="M272 48h90v20h-90zM362 48h90v20h-90zM452 48h90v20h-90z"/><path d="M2 68h90v20H2z" fill="#dcdcdc"/><path d="M272 68h90v20h-90zM452 68h90v20h-90z"/><path d="M2 88h90v20H2z" fill="#dcdcdc"/><path d="M272 88h90v20h-90zM452 88h90v20h-90z"/><path d="M2 108h90v20H2z" fill="#dcdcdc"/><path d="M272 108h90v20h-90zM362 108h90v20h-90z"/><path d="M2 128h90v20H2z" fill="#dcdcdc"/><path d="M272 128h90v20h-90zM362 128h90v20h-90z"/><path d="M2 148h90v20H2z" fill="#dcdcdc"/><path d="M272 148h90v20h-90zM362 148h90v20h-90zM452 148h90v20h-90z"/><path d="M2 168h90v20H2z" fill="#dcdcdc"/><path d="M272 168h90v20h-90zM452 168h90v20h-90z"/><path d="M2 188h90v20H2z" fill="#dcdcdc"/><path d="M272 188h90v20h-90zM452 188h90v20h-90z"/><path d="M2 208h90v20H2z" fill="#dcdcdc"/><path d="M272 208h90v20h-90zM362 208h90v20h-90z"/><path d="M2 228h90v20H2z" fill="#dcdcdc"/><path d="M272 228h90v20h-90zM362 228h90v20h-90z"/><path d="M2 248h90v20H2z" fill="#dcdcdc"/><path d="M92 248h90v20H92zM182 248h90v20h-90zM362 248h90v20h-90zM452 248h90v20h-90z"/><path d="M2 268h90v20H2z" fill="#dcdcdc"/><path d="M92 268h90v20H92zM182 268h90v20h-90zM362 268h90v20h-90zM452 268h90v20h-90z"/></g><clipPath id="q"><path transform="matrix(1 0 0 -1 0 290)" d="M92.175 242.375h89.65v19.45h-89.65z"/></clipPath><g clip-path="url(#q)"><symbol id="r"><path d="M.214.253.165.12A.345.345 0 0 1 .152.066C.152.06.153.054.156.05A.036.036 0 0 1 .17.04.163.163 0 0 1 .197.034L.237.03a.091.091 0 0 0 0-.03 2.809 2.809 0 0 0-.129.002A1.362 1.362 0 0 1 .002 0a.094.094 0 0 0 0 .03.864.864 0 0 1 .054.01.068.068 0 0 1 .018.011c.005.005.01.01.015.018L.104.1.12.14.33.677a.148.148 0 0 0 .04.008L.578.132A.975.975 0 0 1 .599.078a.089.089 0 0 1 .02-.03.056.056 0 0 1 .027-.012A.666.666 0 0 1 .69.03a.094.094 0 0 0 0-.03 2.587 2.587 0 0 0-.14.002A2.622 2.622 0 0 1 .411 0a.091.091 0 0 0 0 .03 2.427 2.427 0 0 1 .066.01.034.034 0 0 1 .014.007.022.022 0 0 1 .005.015L.494.079a.32.32 0 0 1-.008.025L.43.254H.214m.014.04h.188L.322.55.228.293z"/></symbol><symbol id="s"><path d="M.364.102A.085.085 0 0 0 .377.081.232.232 0 0 0 .203 0c-.06 0-.11.021-.147.063A.236.236 0 0 0 0 .226C0 .3.021.358.063.404a.214.214 0 0 0 .165.068C.27.472.305.462.333.444.36.426.374.404.374.377A.049.049 0 0 0 .36.341.046.046 0 0 0 .327.328C.31.328.296.336.283.353a.119.119 0 0 0-.018.07.104.104 0 0 1-.051.011A.108.108 0 0 1 .12.38.244.244 0 0 1 .085.246c0-.054.014-.098.042-.131a.146.146 0 0 1 .118-.05c.037 0 .076.012.119.037z"/></symbol><symbol id="t"><path d="M.788 0a1.425 1.425 0 0 0-.11.002A1.54 1.54 0 0 1 .572 0a.107.107 0 0 0 0 .029.274.274 0 0 1 .033.004.04.04 0 0 1 .02.009.033.033 0 0 1 .009.02.212.212 0 0 1 .002.036v.19C.636.332.63.36.614.376.6.392.577.4.548.4a.149.149 0 0 1-.11-.048A.237.237 0 0 0 .44.321V.108C.44.09.44.076.442.065A.043.043 0 0 1 .451.042a.034.034 0 0 1 .02-.01A.43.43 0 0 1 .505.03a.11.11 0 0 0 0-.029 1.425 1.425 0 0 0-.11.002A1.54 1.54 0 0 1 .29 0a.107.107 0 0 0 0 .029.274.274 0 0 1 .033.004.04.04 0 0 1 .02.009.033.033 0 0 1 .009.02.212.212 0 0 1 .002.036v.19C.354.332.347.36.332.376.318.392.296.4.266.4A.148.148 0 0 1 .158.352V.108c0-.018 0-.032.002-.043A.043.043 0 0 1 .169.042a.035.035 0 0 1 .02-.01A.43.43 0 0 1 .223.03a.11.11 0 0 0 0-.029 1.425 1.425 0 0 0-.11.002A1.606 1.606 0 0 1 .001 0a.107.107 0 0 0 0 .029.367.367 0 0 1 .038.004c.01.001.017.004.022.009a.033.033 0 0 1 .01.02.212.212 0 0 1 .002.036v.21c0 .018 0 .033-.002.044 0 .011-.003.02-.008.026a.036.036 0 0 1-.02.014.255.255 0 0 1-.04.008.064.064 0 0 0 0 .025c.052.01.1.024.144.041l.01-.004V.39a.234.234 0 0 0 .159.072C.375.462.413.437.43.386a.24.24 0 0 0 .166.076C.64.462.67.45.69.426A.156.156 0 0 0 .722.32V.108c0-.018 0-.032.002-.043A.043.043 0 0 1 .733.042a.034.034 0 0 1 .019-.01A.43.43 0 0 1 .788.03a.11.11 0 0 0 0-.029z"/></symbol><symbol id="u"><path d="M.246 0a2.08 2.08 0 0 0-.132.002A1.606 1.606 0 0 1 0 0a.142.142 0 0 0 0 .029.367.367 0 0 1 .038.004c.01.001.017.004.022.009a.033.033 0 0 1 .009.02l.002.036v.46L.071.6C.07.61.068.62.063.626a.036.036 0 0 1-.021.015.255.255 0 0 1-.04.007.064.064 0 0 0 0 .025c.051.01.1.024.146.042L.158.71A2.274 2.274 0 0 1 .155.636C.204.686.254.71.305.71A.162.162 0 0 0 .442.646a.244.244 0 0 0 .05-.153.25.25 0 0 0-.068-.18.222.222 0 0 0-.168-.07.308.308 0 0 0-.1.014v-.15C.157.09.159.077.16.066A.035.035 0 0 1 .17.043a.05.05 0 0 1 .027-.01A.592.592 0 0 1 .246.03a.11.11 0 0 0 0-.029m-.09.333a.138.138 0 0 1 .11-.055c.045 0 .078.016.102.048a.218.218 0 0 1 .035.132.247.247 0 0 1-.036.14.114.114 0 0 1-.1.054.144.144 0 0 1-.111-.055V.333z"/></symbol><symbol id="v"><path d="M.232 0a1.519 1.519 0 0 0-.113.002A1.595 1.595 0 0 1 .006 0a.086.086 0 0 0 0 .029.367.367 0 0 1 .038.004c.01.001.017.004.022.009a.033.033 0 0 1 .009.02l.002.036v.485L.076.626c0 .011-.004.02-.008.026a.039.039 0 0 1-.022.014.264.264 0 0 1-.044.008.064.064 0 0 0 0 .025c.05.007.1.02.153.041l.01-.004A2.255 2.255 0 0 1 .163.633V.108c0-.018 0-.032.002-.043A.043.043 0 0 1 .174.042a.036.036 0 0 1 .02-.01A.494.494 0 0 1 .232.03a.11.11 0 0 0 0-.029z"/></symbol><symbol id="w"><path d="M.226 0a1.519 1.519 0 0 0-.112.002A1.606 1.606 0 0 1 .001 0a.107.107 0 0 0 0 .029.367.367 0 0 1 .038.004c.01.001.017.004.022.009a.033.033 0 0 1 .01.02.212.212 0 0 1 .002.036v.21c0 .018 0 .033-.002.044 0 .011-.003.02-.008.026a.036.036 0 0 1-.02.014.255.255 0 0 1-.04.008.064.064 0 0 0 0 .025c.052.01.101.024.147.041L.16.462A3.105 3.105 0 0 1 .158.36V.108c0-.018 0-.032.002-.043A.043.043 0 0 1 .169.042a.036.036 0 0 1 .02-.01A.494.494 0 0 1 .226.03a.11.11 0 0 0 0-.029M.054.641c0 .015.005.029.016.04.01.011.024.017.04.017C.129.698.142.692.153.68a.055.055 0 0 0 0-.08.055.055 0 0 0-.041-.016.056.056 0 0 0-.057.056z"/></symbol><use xlink:href="#r" transform="matrix(10 0 0 -10 95.978 40.14)"/><use xlink:href="#s" transform="matrix(10 0 0 -10 103.074 40.238)"/><use xlink:href="#s" transform="matrix(10 0 0 -10 107.4 40.238)"/><use xlink:href="#h" transform="matrix(10 0 0 -10 111.726 40.238)"/><use xlink:href="#t" transform="matrix(10 0 0 -10 116.87 40.14)"/><use xlink:href="#u" transform="matrix(10 0 0 -10 125.15 42.626)"/><use xlink:href="#v" transform="matrix(10 0 0 -10 130.568 40.14)"/><use xlink:href="#w" transform="matrix(10 0 0 -10 133.379 40.14)"/></g><clipPath id="x"><path transform="matrix(1 0 0 -1 0 290)" d="M182.175 242.375h89.65v19.45h-89.65z"/></clipPath><g clip-path="url(#x)"><symbol id="y"><path d="M.194.57V.12L.195.073A.04.04 0 0 1 .207.047a.054.054 0 0 1 .028-.01A.833.833 0 0 1 .29.03a.094.094 0 0 0 0-.03 3.573 3.573 0 0 0-.145.002A2.904 2.904 0 0 1 .002 0a.091.091 0 0 0 0 .03l.054.006a.06.06 0 0 1 .028.01C.09.05.094.058.095.067a.25.25 0 0 1 .003.04V.56c0 .02-.001.035-.003.046a.039.039 0 0 1-.01.025.055.055 0 0 1-.03.012.652.652 0 0 1-.053.006.094.094 0 0 0 0 .03A3.577 3.577 0 0 0 .147.676 2.904 2.904 0 0 1 .29.678a.091.091 0 0 0 0-.03A1.049 1.049 0 0 1 .236.642a.064.064 0 0 1-.029-.01A.031.031 0 0 1 .195.61.312.312 0 0 1 .194.57z"/></symbol><symbol id="z"><path d="M.518 0a1.426 1.426 0 0 0-.111.002A1.515 1.515 0 0 1 .299 0a.086.086 0 0 0 0 .029.296.296 0 0 1 .034.004.037.037 0 0 1 .02.009.035.035 0 0 1 .01.02l.002.036v.19C.365.332.357.36.34.376.326.392.303.4.273.4A.16.16 0 0 1 .158.352V.108L.16.065A.043.043 0 0 1 .17.042a.035.035 0 0 1 .019-.01A.46.46 0 0 1 .224.03a.11.11 0 0 0 0-.029 1.425 1.425 0 0 0-.11.002A1.606 1.606 0 0 1 .002 0a.086.086 0 0 0 0 .029.367.367 0 0 1 .038.004C.05.034.056.037.06.042a.033.033 0 0 1 .01.02l.002.036v.21c0 .019 0 .033-.002.044 0 .011-.003.02-.007.026a.036.036 0 0 1-.021.014.255.255 0 0 1-.04.008.064.064 0 0 0 0 .025.956.956 0 0 1 .144.041l.01-.004V.39a.246.246 0 0 0 .165.072C.365.462.397.45.418.426.44.402.451.366.451.32V.108L.452.065a.043.043 0 0 1 .01-.023.035.035 0 0 1 .02-.01A.494.494 0 0 1 .517.03a.11.11 0 0 0 0-.029z"/></symbol><use xlink:href="#y" transform="matrix(10 0 0 -10 186.369 40.14)"/><use xlink:href="#z" transform="matrix(10 0 0 -10 189.723 40.14)"/><use xlink:href="#l" transform="matrix(10 0 0 -10 195.472 40.224)"/><use xlink:href="#s" transform="matrix(10 0 0 -10 200.018 40.238)"/><use xlink:href="#s" transform="matrix(10 0 0 -10 204.344 40.238)"/><use xlink:href="#h" transform="matrix(10 0 0 -10 208.67 40.238)"/><use xlink:href="#t" transform="matrix(10 0 0 -10 213.814 40.14)"/><use xlink:href="#u" transform="matrix(10 0 0 -10 222.094 42.626)"/><use xlink:href="#v" transform="matrix(10 0 0 -10 227.512 40.14)"/><use xlink:href="#w" transform="matrix(10 0 0 -10 230.323 40.14)"/></g><clipPath id="A"><path transform="matrix(1 0 0 -1 0 290)" d="M272.175 242.375h89.65v19.45h-89.65z"/></clipPath><g clip-path="url(#A)"><symbol id="B"><path d="M.29.44a.158.158 0 0 0 0-.043H.166v-.29C.166.09.167.077.17.066a.038.038 0 0 1 .01-.023.051.051 0 0 1 .027-.01A.813.813 0 0 1 .254.03a.11.11 0 0 0 0-.029 2.048 2.048 0 0 0-.132.002A1.595 1.595 0 0 1 .01 0a.107.107 0 0 0 0 .029.367.367 0 0 1 .038.004c.01.001.017.004.022.009a.033.033 0 0 1 .009.02L.08.098v.3H.002a.064.064 0 0 0 0 .024l.045.01c.01.003.018.006.023.01.005.003.008.006.008.009a.17.17 0 0 1 .003.028c.004.089.026.153.064.194.039.04.087.06.146.06a.146.146 0 0 0 .08-.02C.393.699.403.68.403.659A.047.047 0 0 0 .39.625.043.043 0 0 0 .358.611.061.061 0 0 0 .31.633a.08.08 0 0 0-.019.054.086.086 0 0 1-.032.005.076.076 0 0 1-.07-.041.302.302 0 0 1-.023-.136V.44H.29z"/></symbol><use xlink:href="#y" transform="matrix(10 0 0 -10 276.369 40.14)"/><use xlink:href="#z" transform="matrix(10 0 0 -10 279.723 40.14)"/><use xlink:href="#B" transform="matrix(10 0 0 -10 285.335 40.14)"/><use xlink:href="#w" transform="matrix(10 0 0 -10 288.499 40.14)"/><use xlink:href="#z" transform="matrix(10 0 0 -10 291.256 40.14)"/><use xlink:href="#w" transform="matrix(10 0 0 -10 296.89 40.14)"/><use xlink:href="#i" transform="matrix(10 0 0 -10 299.58 40.224)"/><use xlink:href="#w" transform="matrix(10 0 0 -10 302.953 40.14)"/><use xlink:href="#B" transform="matrix(10 0 0 -10 305.69 40.14)"/></g><clipPath id="C"><path transform="matrix(1 0 0 -1 0 290)" d="M362.175 242.375h89.65v19.45h-89.65z"/></clipPath><g clip-path="url(#C)"><symbol id="D"><path d="m.292.31.001.015c0 .033-.008.06-.025.08a.082.082 0 0 1-.069.032.099.099 0 0 1-.074-.033.174.174 0 0 1-.04-.096L.292.31M.082.272c0-.067.014-.118.043-.153A.146.146 0 0 1 .243.067.23.23 0 0 1 .371.11.091.091 0 0 0 .385.087.239.239 0 0 0 .202 0C.14 0 .092.021.055.063A.242.242 0 0 0 0 .228c0 .071.02.13.058.176.039.045.09.068.154.068A.164.164 0 0 0 .337.424.177.177 0 0 0 .383.297c0-.011 0-.02-.002-.027L.082.272M.33.699.21.512a.06.06 0 0 0-.026.002l.051.19c.003.003.012.004.03.004A.367.367 0 0 0 .33.703V.7z"/></symbol><use xlink:href="#y" transform="matrix(10 0 0 -10 366.369 40.14)"/><use xlink:href="#t" transform="matrix(10 0 0 -10 369.727 40.14)"/><use xlink:href="#u" transform="matrix(10 0 0 -10 378.007 42.626)"/><use xlink:href="#D" transform="matrix(10 0 0 -10 383.612 40.238)"/><use xlink:href="#d" transform="matrix(10 0 0 -10 388.013 40.14)"/><use xlink:href="#l" transform="matrix(10 0 0 -10 391.878 40.224)"/><use xlink:href="#i" transform="matrix(10 0 0 -10 396.271 40.224)"/><use xlink:href="#w" transform="matrix(10 0 0 -10 399.644 40.14)"/><use xlink:href="#B" transform="matrix(10 0 0 -10 402.38 40.14)"/></g><clipPath id="E"><path transform="matrix(1 0 0 -1 0 290)" d="M452.175 242.375h89.65v19.45h-89.65z"/></clipPath><g clip-path="url(#E)"><symbol id="F"><path d="M.002.678A3.577 3.577 0 0 0 .147.676 2.162 2.162 0 0 1 .279.68C.352.68.41.665.45.634a.152.152 0 0 0 .062-.13.186.186 0 0 0-.063-.15.249.249 0 0 0-.167-.053.42.42 0 0 0-.088.01V.12L.195.073A.04.04 0 0 1 .208.047a.062.062 0 0 1 .03-.01A.914.914 0 0 1 .297.03a.094.094 0 0 0 0-.03 3.914 3.914 0 0 0-.152.002A2.904 2.904 0 0 1 .002 0a.091.091 0 0 0 0 .03l.054.006a.06.06 0 0 1 .028.01C.09.05.094.058.095.067a.25.25 0 0 1 .003.04V.56c0 .02-.001.035-.003.046a.039.039 0 0 1-.01.025.055.055 0 0 1-.03.012.652.652 0 0 1-.053.006.094.094 0 0 0 0 .03m.192-.33A.286.286 0 0 1 .257.342a.14.14 0 0 1 .108.043c.027.028.04.065.04.108a.147.147 0 0 1-.04.11C.34.628.301.642.25.642A.433.433 0 0 1 .194.638v-.29z"/></symbol><symbol id="G"><path d="M0 .066a.065.065 0 0 0 .113.046.066.066 0 0 0 0-.092A.063.063 0 0 0 .065 0a.062.062 0 0 0-.047.02A.067.067 0 0 0 0 .066z"/></symbol><symbol id="H"><path d="M.03.16A.196.196 0 0 1 .077.063.114.114 0 0 1 .16.033c.027 0 .048.007.065.02A.069.069 0 0 1 .25.109a.071.071 0 0 1-.01.038.09.09 0 0 1-.026.028.166.166 0 0 1-.037.019L.135.209a.923.923 0 0 0-.047.018.18.18 0 0 0-.041.024.115.115 0 0 0-.03.036.11.11 0 0 0-.01.052c0 .04.015.071.045.096.031.025.07.037.118.037C.19.472.21.471.236.467A.476.476 0 0 1 .299.463C.3.424.301.383.304.338A.136.136 0 0 0 .272.337a.153.153 0 0 1-.038.077.098.098 0 0 1-.07.024.095.095 0 0 1-.062-.019A.059.059 0 0 1 .08.371C.08.357.083.346.09.337A.09.09 0 0 1 .113.313.181.181 0 0 1 .148.296 2.887 2.887 0 0 1 .236.263.158.158 0 0 0 .28.237.12.12 0 0 0 .309.2.125.125 0 0 0 .322.142.126.126 0 0 0 .273.039.193.193 0 0 0 .148 0 .488.488 0 0 0 .08.008a.525.525 0 0 1-.074.007c0 .04-.001.087-.005.143a.2.2 0 0 0 .03.001z"/></symbol><use xlink:href="#F" transform="matrix(10 0 0 -10 456.369 40.14)"/><use xlink:href="#G" transform="matrix(10 0 0 -10 462.512 40.224)"/><use xlink:href="#f" transform="matrix(10 0 0 -10 464.565 40.136)"/><use xlink:href="#F" transform="matrix(10 0 0 -10 467.464 40.14)"/><use xlink:href="#d" transform="matrix(10 0 0 -10 473.126 40.14)"/><use xlink:href="#D" transform="matrix(10 0 0 -10 476.972 40.238)"/><use xlink:href="#H" transform="matrix(10 0 0 -10 481.57 40.238)"/><use xlink:href="#c" transform="matrix(10 0 0 -10 485.522 40.238)"/><use xlink:href="#z" transform="matrix(10 0 0 -10 489.922 40.14)"/><use xlink:href="#i" transform="matrix(10 0 0 -10 495.49 40.224)"/></g><clipPath id="I"><path transform="matrix(1 0 0 -1 0 290)" d="M2.175 222.175h89.45v19.45H2.175z"/></clipPath><g clip-path="url(#I)"><symbol id="J"><path d="M.34 0a.85.85 0 0 0-.062.001 6.444 6.444 0 0 1-.192 0A10.3 10.3 0 0 1 .018 0a.1.1 0 0 0 0 .031l.068.006a.086.086 0 0 1 .036.01.028.028 0 0 1 .013.02.28.28 0 0 1 .002.038v.333a.078.078 0 0 1-.003.028C.132.472.125.475.116.475A.659.659 0 0 1 .009.459a.057.057 0 0 0-.007.015A.239.239 0 0 0 0 .49a1.59 1.59 0 0 1 .233.076A.053.053 0 0 0 .25.545a.091.091 0 0 1-.018-.04.267.267 0 0 1-.006-.063V.115A.876.876 0 0 1 .229.062a.033.033 0 0 1 .01-.014.069.069 0 0 1 .02-.008A9.383 9.383 0 0 1 .34.032.13.13 0 0 0 .34 0z"/></symbol><symbol id="K"><path d="M.03.215A.278.278 0 0 1 .091.082.154.154 0 0 1 .208.037c.039 0 .07.011.096.035a.119.119 0 0 1 .038.09.114.114 0 0 1-.014.058.133.133 0 0 1-.036.042.242.242 0 0 1-.05.031 1.22 1.22 0 0 1-.06.027A1.6 1.6 0 0 0 .12.348a.26.26 0 0 0-.056.036.155.155 0 0 0-.055.123C.01.563.03.61.07.646c.041.036.095.055.161.055a.5.5 0 0 0 .08-.007.439.439 0 0 1 .06-.007.16.16 0 0 1 .026.002C.398.632.402.572.407.507A.103.103 0 0 0 .376.505a.284.284 0 0 1-.055.121.121.121 0 0 1-.096.038.135.135 0 0 1-.093-.031.102.102 0 0 1-.035-.08C.097.53.1.511.11.495a.144.144 0 0 1 .036-.04.276.276 0 0 1 .05-.03L.256.4.32.371A.243.243 0 0 0 .376.334.164.164 0 0 0 .433.206a.187.187 0 0 0-.066-.15A.252.252 0 0 0 .198 0a.668.668 0 0 0-.1.01C.059.014.03.02.009.02.009.076.006.14 0 .215c.01.002.02.002.03.001z"/></symbol><use xlink:href="#J" transform="matrix(10 0 0 -10 6.946 60.34)"/><use xlink:href="#K" transform="matrix(10 0 0 -10 11.722 60.468)"/></g><clipPath id="L"><path transform="matrix(1 0 0 -1 0 290)" d="M92.375 222.175h89.45v19.45h-89.45z"/></clipPath><g clip-path="url(#L)"><symbol id="M"><path d="M.054.333A.067.067 0 0 1 .061.312.04.04 0 0 1 .073.298.618.618 0 0 1 .16.265.096.096 0 0 0 .184.253a.04.04 0 0 0 .02-.036.333.333 0 0 0-.016-.083A1.153 1.153 0 0 0 .14 0a.125.125 0 0 0-.034.012.693.693 0 0 1 .022.118c0 .005 0 .01-.003.013a.024.024 0 0 1-.006.01.054.054 0 0 1-.014.009.152.152 0 0 1-.02.007L.05.182a.183.183 0 0 0-.027.012.058.058 0 0 0-.017.015A.04.04 0 0 0 0 .23l.003.021a.345.345 0 0 0 .029.08.02.02 0 0 0 .01.002h.012z"/></symbol><use xlink:href="#M" transform="matrix(10 0 0 -10 152.522 58.041)" fill="#0076ba"/><symbol id="N"><path d="M0 .04a.04.04 0 0 0 .04.04C.051.08.06.076.068.07A.04.04 0 0 0 .08.04.038.038 0 0 0 .068.012.038.038 0 0 0 .04 0a.038.038 0 0 0-.028.012A.038.038 0 0 0 0 .04z"/></symbol><symbol id="O"><path d="M.372.417H.178A.68.68 0 0 1 .148.34.207.207 0 0 1 .156.213 1.01 1.01 0 0 1 .2.1 1.727 1.727 0 0 1 .19.077L.186.057A1.835 1.835 0 0 1 .173.012a.39.39 0 0 1-.125 0C.034.008.025.005.02 0a.066.066 0 0 0-.011.003A.02.02 0 0 0 0 .009a.485.485 0 0 0 .036.089.04.04 0 0 0 .014.008.1.1 0 0 0 .022.007c.01.001.02.003.033.003a1.38 1.38 0 0 0-.024.088.29.29 0 0 0-.004.046c0 .008 0 .017.002.027a.346.346 0 0 0 .024.08l.024.06a.28.28 0 0 0-.03.002.09.09 0 0 0-.024.008.05.05 0 0 0-.017.016.046.046 0 0 0-.007.025.343.343 0 0 0 .015.063.73.73 0 0 0 .01.032.044.044 0 0 0 .022.004A.1.1 0 0 1 .11.544.055.055 0 0 1 .126.532.08.08 0 0 1 .148.527.367.367 0 0 1 .177.526h.207A.19.19 0 0 0 .433.52.09.09 0 0 0 .47.501.08.08 0 0 0 .494.468a.134.134 0 0 0 .008-.05A.325.325 0 0 0 .5.373.867.867 0 0 1 .502.237L.513.149.52.112A.202.202 0 0 0 .52.085c0-.006 0-.011-.002-.015A.503.503 0 0 1 .476.002a.123.123 0 0 0-.027 0 .635.635 0 0 0-.01.105 5.301 5.301 0 0 0 .003.238c.001.012 0 .022-.002.03a.046.046 0 0 1-.01.023.052.052 0 0 1-.023.014.106.106 0 0 1-.035.005M.259.265c0 .012.004.021.012.028a.04.04 0 0 0 .028.012C.311.305.32.301.328.293A.038.038 0 0 0 .339.265.04.04 0 0 0 .3.225a.04.04 0 0 0-.028.011.04.04 0 0 0-.012.03z"/></symbol><use xlink:href="#N" transform="matrix(10 0 0 -10 157.307 61.962)" fill="#0076ba"/><use xlink:href="#O" transform="matrix(10 0 0 -10 154.915 60.453)" fill="#0076ba"/><symbol id="P"><path d="M0 .04a.04.04 0 0 0 .04.04C.051.08.06.076.068.07A.04.04 0 0 0 .08.04.038.038 0 0 0 .068.012.038.038 0 0 0 .04 0a.038.038 0 0 0-.028.012A.038.038 0 0 0 0 .04m0 .124a.04.04 0 0 0 .04.04C.051.204.06.2.068.193A.04.04 0 0 0 .08.164.038.038 0 0 0 .068.136.038.038 0 0 0 .04.124a.038.038 0 0 0-.028.012A.038.038 0 0 0 0 .164z"/></symbol><use xlink:href="#P" transform="matrix(10 0 0 -10 163.972 63.202)"/><use xlink:href="#n" transform="matrix(10 0 0 -10 160.613 60.443)"/><symbol id="Q"><path d="M.159.035.13 0 0 .102l.13.101L.16.168.065.103.16.035z"/></symbol><symbol id="R"><path d="M.174 0H0l.004.046H.18L.174 0z"/></symbol><use xlink:href="#Q" transform="matrix(10 0 0 -10 167.698 54.364)" fill="#ee220c"/><use xlink:href="#R" transform="matrix(10 0 0 -10 167.196 61.742)" fill="#ee220c"/><use xlink:href="#o" transform="matrix(10 0 0 -10 165.867 60.487)"/><symbol id="S"><path d="M.102.146a.042.042 0 0 1 0-.008V.132a.143.143 0 0 1 .004-.04A.078.078 0 0 1 .118.07.146.146 0 0 0 .125.057.038.038 0 0 0 .13.04a.04.04 0 0 0-.01-.028C.112.004.102 0 .089 0 .076 0 .067.004.06.012A.04.04 0 0 0 .05.04c0 .006 0 .012.003.017L.061.07a.129.129 0 0 1 .011.023L.076.11a.143.143 0 0 1 .002.022v.006L.077.146H0l.004.046H.18L.174.146H.102z"/></symbol><use xlink:href="#S" transform="matrix(10 0 0 -10 173.416 63.202)" fill="#ee220c"/><symbol id="T"><path d="M.312.4.31.408a.015.015 0 0 1-.006.006 4.4 4.4 0 0 1-.061.03.05.05 0 0 0-.01.013.036.036 0 0 0-.004.016l.003.02a.25.25 0 0 0 .022.054c.004.01.009.018.014.025a.04.04 0 0 0 .01 0 .042.042 0 0 0 .012 0A.21.21 0 0 1 .293.556.033.033 0 0 1 .3.545a.085.085 0 0 1 .017-.01.295.295 0 0 1 .03-.014A.148.148 0 0 0 .38.505.022.022 0 0 0 .39.487.198.198 0 0 0 .383.44.833.833 0 0 0 .3.244 1.24 1.24 0 0 0 .217.11a1.437 1.437 0 0 1 .17.037c.017.005.03.01.041.016C.44.169.45.178.46.19A.52.52 0 0 1 .54.332a.438.438 0 0 1 .02.062c0 .005-.003.01-.008.014a.097.097 0 0 1-.029.015.49.49 0 0 0-.038.017.046.046 0 0 0-.012.012.033.033 0 0 0-.004.017l.003.024A.315.315 0 0 0 .502.57l.004.001a.039.039 0 0 0 .014 0h.004A.059.059 0 0 1 .53.554.039.039 0 0 1 .54.542 1.621 1.621 0 0 1 .584.524.13.13 0 0 0 .623.505C.63.5.635.491.635.482a.222.222 0 0 0-.01-.05.992.992 0 0 0-.06-.17A1.231 1.231 0 0 0 .521.174a.546.546 0 0 0-.044-.07.126.126 0 0 0-.042-.04A.404.404 0 0 0 .34.033 2.337 2.337 0 0 0 .232.009.904.904 0 0 0 .16 0a.108.108 0 0 0-.013.003.049.049 0 0 0-.012.005 2.384 2.384 0 0 0-.05.177.874.874 0 0 0-.015.128c0 .015.002.03.005.042a.511.511 0 0 0 .013.05.013.013 0 0 1-.004.007.05.05 0 0 1-.01.007L.056.43a8.512 8.512 0 0 0-.04.024.053.053 0 0 0-.012.012A.03.03 0 0 0 0 .481c0 .005.001.012.004.02a.533.533 0 0 0 .042.075h.011A.172.172 0 0 0 .07.573C.069.568.07.563.072.56A.027.027 0 0 1 .079.55 1.119 1.119 0 0 1 .125.526C.153.513.167.5.167.488a.05.05 0 0 0-.004-.02.452.452 0 0 0-.021-.046.248.248 0 0 1-.02-.086A.23.23 0 0 1 .125.29.742.742 0 0 1 .18.131.818.818 0 0 1 .27.28a.735.735 0 0 1 .036.09.12.12 0 0 1 .006.03m.16.253c0 .011.003.02.01.028a.04.04 0 0 0 .03.012C.523.693.532.689.54.68A.038.038 0 0 0 .552.653a.04.04 0 0 0-.04-.04.04.04 0 0 0-.03.011.04.04 0 0 0-.01.029z"/></symbol><use xlink:href="#T" transform="matrix(10 0 0 -10 171.282 60.497)"/></g><clipPath id="U"><path transform="matrix(1 0 0 -1 0 290)" d="M182.175 222.175h89.65v19.45h-89.65z"/></clipPath><g clip-path="url(#U)"><use xlink:href="#n" transform="matrix(10 0 0 -10 245.003 60.443)"/><symbol id="V"><path d="M0 .04c0 .011.004.02.011.028A.04.04 0 0 0 .04.08C.051.08.06.076.068.068A.038.038 0 0 0 .08.04.04.04 0 0 0 .04 0a.04.04 0 0 0-.029.011A.04.04 0 0 0 0 .04z"/></symbol><use xlink:href="#V" transform="matrix(10 0 0 -10 250.71 54.37)" fill="#ee220c"/><use xlink:href="#o" transform="matrix(10 0 0 -10 250.257 60.487)"/><use xlink:href="#P" transform="matrix(10 0 0 -10 258.299 63.202)" fill="#ee220c"/><symbol id="W"><path d="M.216.16A.038.038 0 0 0 .204.13.038.038 0 0 0 .176.12a.04.04 0 0 0-.04.04.04.04 0 0 0 .011.028.04.04 0 0 0 .029.011C.187.2.196.195.204.188A.04.04 0 0 0 .216.159M.148.04A.038.038 0 0 0 .136.012.038.038 0 0 0 .108 0 .038.038 0 0 0 .08.012.038.038 0 0 0 .068.04a.04.04 0 0 0 .04.04C.119.08.128.076.136.07A.04.04 0 0 0 .148.04M.08.16A.04.04 0 0 0 .04.12a.038.038 0 0 0-.028.01A.038.038 0 0 0 0 .16.04.04 0 0 0 .04.2.04.04 0 0 0 .069.187.04.04 0 0 0 .08.159z"/></symbol><use xlink:href="#T" transform="matrix(10 0 0 -10 255.672 60.497)"/><use xlink:href="#W" transform="matrix(10 0 0 -10 263.894 63.153)"/><symbol id="X"><path d="M.148.005a.103.103 0 0 1-.022.013.058.058 0 0 1-.024.004.139.139 0 0 1-.037-.005A.728.728 0 0 1 .012 0 .044.044 0 0 0 0 .021a1.026 1.026 0 0 0 .075.052.449.449 0 0 0-.048.063.125.125 0 0 0-.01.027.113.113 0 0 0 0 .057.406.406 0 0 0 .04.08l.039.052a1.087 1.087 0 0 1-.047.05.143.143 0 0 0-.014.022.054.054 0 0 0-.005.022c0 .01.002.019.006.028a.63.63 0 0 0 .049.088.03.03 0 0 0 .012 0A.035.035 0 0 0 .11.559V.543L.11.523a.088.088 0 0 1 .006-.02A.19.19 0 0 1 .145.46 2.629 2.629 0 0 1 .329.284a.76.76 0 0 1 .045.052.073.073 0 0 1 .01.018l.003.015a.033.033 0 0 1-.008.02.165.165 0 0 1-.025.027.75.75 0 0 0-.039.037.057.057 0 0 0-.006.013.052.052 0 0 0-.002.013c0 .007.005.018.014.032a.34.34 0 0 0 .05.054.02.02 0 0 0 .01-.001.074.074 0 0 0 .012-.004L.392.55V.544l.001-.01A.032.032 0 0 1 .4.524a.996.996 0 0 1 .033-.03.308.308 0 0 0 .04-.04.046.046 0 0 0 .01-.028.078.078 0 0 0-.004-.023A.137.137 0 0 0 .461.37.93.93 0 0 0 .359.254 1.564 1.564 0 0 0 .44.179L.453.166a.224.224 0 0 0 .03-.032.045.045 0 0 0 .01-.025A.046.046 0 0 0 .489.09 2.189 2.189 0 0 1 .452 0c-.008 0-.015 0-.021.002a.265.265 0 0 1-.063.095 1.922 1.922 0 0 1-.14.135 4.915 4.915 0 0 1-.101.09.193.193 0 0 1-.029-.05.118.118 0 0 1-.007-.037c0-.01.002-.02.007-.03a.166.166 0 0 1 .02-.033A1.908 1.908 0 0 1 .213.082V.077L.148.005z"/></symbol><use xlink:href="#X" transform="matrix(10 0 0 -10 262.532 60.419)" fill="#0076ba"/></g><clipPath id="Y"><path transform="matrix(1 0 0 -1 0 290)" d="M2.175 202.175h89.45v19.65H2.175z"/></clipPath><g clip-path="url(#Y)"><symbol id="Z"><path d="M.035.46a.095.095 0 0 0-.01.012.125.125 0 0 0-.005.01.26.26 0 0 0 .084.064c.03.013.063.02.098.02.026 0 .05-.003.07-.01A.165.165 0 0 0 .33.528a.126.126 0 0 0 .048-.1A.176.176 0 0 0 .36.352.4.4 0 0 0 .307.27.971.971 0 0 0 .221.179 2.522 2.522 0 0 0 .104.073h.045a72.725 72.725 0 0 0 .178.005.044.044 0 0 1 .02.008.082.082 0 0 1 .02.022L.39.151A.08.08 0 0 0 .416.147 3.089 3.089 0 0 1 .383 0a26.349 26.349 0 0 1-.182.002H.144A6.436 6.436 0 0 1 .004 0 .084.084 0 0 0 0 .027c.054.042.1.08.136.115A.825.825 0 0 1 .224.24a.34.34 0 0 1 .047.084c.01.025.014.05.014.071 0 .02-.003.037-.01.05A.09.09 0 0 1 .248.48a.107.107 0 0 1-.04.019.208.208 0 0 1-.112-.005A.206.206 0 0 1 .035.46z"/></symbol><symbol id="aa"><path d="M.643.68H.714a5.077 5.077 0 0 1 .143.002.114.114 0 0 0 0-.03A1.582 1.582 0 0 1 .803.645a.062.062 0 0 1-.03-.01.03.03 0 0 1-.01-.02.27.27 0 0 1-.002-.04L.769.122c0-.02 0-.036.002-.047A.042.042 0 0 1 .78.051.054.054 0 0 1 .81.04.886.886 0 0 1 .865.034a.094.094 0 0 0 0-.03 4.565 4.565 0 0 0-.143.002A4.632 4.632 0 0 1 .585.004a.091.091 0 0 0 0 .03l.05.006a.06.06 0 0 1 .028.01C.67.053.673.061.674.07c.002.01.002.023.002.04L.667.629.423.006A.075.075 0 0 0 .389 0L.16.609.145.111V.073a.032.032 0 0 1 .01-.02A.064.064 0 0 1 .182.04L.236.033a.091.091 0 0 0 0-.03 2.942 2.942 0 0 0-.115.003 5.128 5.128 0 0 1-.12-.002.094.094 0 0 0 0 .03C.025.036.043.039.055.04a.057.057 0 0 1 .028.013.04.04 0 0 1 .011.025c.002.01.003.025.004.044l.018.451v.04a.03.03 0 0 1-.012.02.059.059 0 0 1-.03.012A1.128 1.128 0 0 1 .02.652a.114.114 0 0 0 0 .03A4.486 4.486 0 0 0 .162.68H.234l.2-.53.209.53z"/></symbol><use xlink:href="#Z" transform="matrix(10 0 0 -10 6.468 80.14)"/><use xlink:href="#aa" transform="matrix(10 0 0 -10 11.251 80.177)"/><use xlink:href="#K" transform="matrix(10 0 0 -10 20.614 80.268)"/></g><clipPath id="ab"><path transform="matrix(1 0 0 -1 0 290)" d="M92.375 202.175h89.45v19.65h-89.45z"/></clipPath><g clip-path="url(#ab)"><use xlink:href="#S" transform="matrix(10 0 0 -10 156.814 84.002)" fill="#0076ba"/><use xlink:href="#O" transform="matrix(10 0 0 -10 154.915 81.253)" fill="#0076ba"/><use xlink:href="#P" transform="matrix(10 0 0 -10 163.972 84.002)"/><use xlink:href="#n" transform="matrix(10 0 0 -10 160.613 81.243)"/><use xlink:href="#Q" transform="matrix(10 0 0 -10 167.698 75.164)" fill="#ee220c"/><use xlink:href="#R" transform="matrix(10 0 0 -10 167.196 82.542)" fill="#ee220c"/><use xlink:href="#o" transform="matrix(10 0 0 -10 165.867 81.287)"/><use xlink:href="#S" transform="matrix(10 0 0 -10 173.416 84.002)" fill="#ee220c"/><use xlink:href="#T" transform="matrix(10 0 0 -10 171.282 81.297)"/></g><clipPath id="ac"><path transform="matrix(1 0 0 -1 0 290)" d="M182.175 202.175h89.65v19.65h-89.65z"/></clipPath><g clip-path="url(#ac)"><use xlink:href="#n" transform="matrix(10 0 0 -10 244.998 81.243)"/><use xlink:href="#V" transform="matrix(10 0 0 -10 250.706 75.17)" fill="#ee220c"/><use xlink:href="#o" transform="matrix(10 0 0 -10 250.252 81.287)"/><use xlink:href="#P" transform="matrix(10 0 0 -10 258.294 84.002)" fill="#ee220c"/><use xlink:href="#T" transform="matrix(10 0 0 -10 255.667 81.297)"/><use xlink:href="#N" transform="matrix(10 0 0 -10 264.666 82.762)" fill="#ee220c"/><use xlink:href="#O" transform="matrix(10 0 0 -10 262.273 81.253)" fill="#0076ba"/></g><clipPath id="ad"><path transform="matrix(1 0 0 -1 0 290)" d="M362.175 202.175h89.65v19.65h-89.65z"/></clipPath><g clip-path="url(#ad)"><use xlink:href="#n" transform="matrix(10 0 0 -10 430.613 80.243)"/><use xlink:href="#V" transform="matrix(10 0 0 -10 436.321 74.17)" fill="#ee220c"/><use xlink:href="#o" transform="matrix(10 0 0 -10 435.867 80.287)"/><use xlink:href="#P" transform="matrix(10 0 0 -10 443.909 83.002)" fill="#ee220c"/><use xlink:href="#T" transform="matrix(10 0 0 -10 441.282 80.297)"/></g><clipPath id="ae"><path transform="matrix(1 0 0 -1 0 290)" d="M2.175 182.175h89.45v19.65H2.175z"/></clipPath><g clip-path="url(#ae)"><use xlink:href="#Z" transform="matrix(10 0 0 -10 6.468 100.14)"/><use xlink:href="#g" transform="matrix(10 0 0 -10 11.369 100.14)"/><use xlink:href="#K" transform="matrix(10 0 0 -10 17.469 100.268)"/></g><clipPath id="af"><path transform="matrix(1 0 0 -1 0 290)" d="M92.375 182.175h89.45v19.65h-89.45z"/></clipPath><g clip-path="url(#af)"><use xlink:href="#P" transform="matrix(10 0 0 -10 157.307 104.002)" fill="#0076ba"/><use xlink:href="#O" transform="matrix(10 0 0 -10 154.915 101.253)" fill="#0076ba"/><use xlink:href="#P" transform="matrix(10 0 0 -10 163.972 104.002)"/><use xlink:href="#n" transform="matrix(10 0 0 -10 160.613 101.243)"/><use xlink:href="#R" transform="matrix(10 0 0 -10 167.195 102.542)" fill="#ee220c"/><use xlink:href="#o" transform="matrix(10 0 0 -10 165.867 101.287)"/><use xlink:href="#S" transform="matrix(10 0 0 -10 173.416 104.002)" fill="#ee220c"/><use xlink:href="#T" transform="matrix(10 0 0 -10 171.282 101.297)"/></g><clipPath id="ag"><path transform="matrix(1 0 0 -1 0 290)" d="M182.175 182.175h89.65v19.65h-89.65z"/></clipPath><g clip-path="url(#ag)"><use xlink:href="#M" transform="matrix(10 0 0 -10 242.449 98.841)" fill="#0076ba"/><use xlink:href="#N" transform="matrix(10 0 0 -10 248.357 102.762)" fill="#0076ba"/><use xlink:href="#n" transform="matrix(10 0 0 -10 244.998 101.243)"/><use xlink:href="#P" transform="matrix(10 0 0 -10 252.073 104.002)" fill="#ee220c"/><use xlink:href="#o" transform="matrix(10 0 0 -10 250.252 101.287)"/><use xlink:href="#P" transform="matrix(10 0 0 -10 258.294 104.002)" fill="#ee220c"/><use xlink:href="#T" transform="matrix(10 0 0 -10 255.667 101.297)"/><use xlink:href="#N" transform="matrix(10 0 0 -10 264.666 102.762)" fill="#ee220c"/><use xlink:href="#O" transform="matrix(10 0 0 -10 262.273 101.253)" fill="#0076ba"/></g><clipPath id="ah"><path transform="matrix(1 0 0 -1 0 290)" d="M362.175 182.175h89.65v19.65h-89.65z"/></clipPath><g clip-path="url(#ah)"><use xlink:href="#M" transform="matrix(10 0 0 -10 428.064 97.841)" fill="#0076ba"/><use xlink:href="#N" transform="matrix(10 0 0 -10 433.972 101.762)" fill="#0076ba"/><use xlink:href="#n" transform="matrix(10 0 0 -10 430.613 100.243)"/><use xlink:href="#P" transform="matrix(10 0 0 -10 437.688 103.002)" fill="#ee220c"/><use xlink:href="#o" transform="matrix(10 0 0 -10 435.867 100.287)"/><use xlink:href="#N" transform="matrix(10 0 0 -10 443.909 101.762)" fill="#ee220c"/><use xlink:href="#T" transform="matrix(10 0 0 -10 441.282 100.297)"/></g><clipPath id="ai"><path transform="matrix(1 0 0 -1 0 290)" d="M2.175 162.175h89.45v19.65H2.175z"/></clipPath><g clip-path="url(#ai)"><symbol id="aj"><path d="M.115.335a.096.096 0 0 0-.011.028c.03.009.055.02.077.033a.25.25 0 0 1 .054.043.178.178 0 0 1 .032.05c.007.016.01.033.01.049a.096.096 0 0 1-.03.07.108.108 0 0 1-.037.021.153.153 0 0 1-.051.008.214.214 0 0 1-.125-.043.095.095 0 0 0-.009.011.125.125 0 0 0-.005.012A.232.232 0 0 0 .2.7.227.227 0 0 0 .272.69.15.15 0 0 0 .324.661.114.114 0 0 0 .354.62.113.113 0 0 0 .365.572.188.188 0 0 0 .336.478.256.256 0 0 0 .247.395a.231.231 0 0 0 .07-.022.162.162 0 0 0 .08-.09c.007-.02.01-.04.01-.063A.189.189 0 0 0 .369.1.217.217 0 0 0 .325.057.276.276 0 0 0 .21.007.28.28 0 0 0 .092.006a.177.177 0 0 0-.047.017.098.098 0 0 0-.033.028A.06.06 0 0 0 0 .088c0 .015.004.026.011.033C.02.127.03.13.04.13A.051.051 0 0 0 .063.124.08.08 0 0 0 .085.106.177.177 0 0 0 .118.038a.211.211 0 0 1 .04-.004.166.166 0 0 1 .154.098.147.147 0 0 1 .012.059.164.164 0 0 1-.01.056.147.147 0 0 1-.144.096.203.203 0 0 1-.055-.008z"/></symbol><use xlink:href="#aj" transform="matrix(10 0 0 -10 6.595 121.484)"/><use xlink:href="#aa" transform="matrix(10 0 0 -10 11.251 120.177)"/><use xlink:href="#K" transform="matrix(10 0 0 -10 20.614 120.268)"/></g><clipPath id="ak"><path transform="matrix(1 0 0 -1 0 290)" d="M92.375 162.175h89.45v19.65h-89.45z"/></clipPath><g clip-path="url(#ak)"><use xlink:href="#n" transform="matrix(10 0 0 -10 160.613 121.243)"/><use xlink:href="#R" transform="matrix(10 0 0 -10 167.195 122.542)" fill="#ee220c"/><use xlink:href="#o" transform="matrix(10 0 0 -10 165.867 121.287)"/><use xlink:href="#S" transform="matrix(10 0 0 -10 173.416 124.002)" fill="#ee220c"/><use xlink:href="#T" transform="matrix(10 0 0 -10 171.282 121.297)"/></g><clipPath id="al"><path transform="matrix(1 0 0 -1 0 290)" d="M182.175 162.175h89.65v19.65h-89.65z"/></clipPath><g clip-path="url(#al)"><use xlink:href="#n" transform="matrix(10 0 0 -10 247.991 121.243)"/><use xlink:href="#V" transform="matrix(10 0 0 -10 253.699 115.17)" fill="#ee220c"/><use xlink:href="#o" transform="matrix(10 0 0 -10 253.245 121.287)"/><use xlink:href="#P" transform="matrix(10 0 0 -10 261.287 124.002)" fill="#ee220c"/><use xlink:href="#T" transform="matrix(10 0 0 -10 258.66 121.297)"/><use xlink:href="#N" transform="matrix(10 0 0 -10 266.048 122.762)" fill="#ee220c"/><use xlink:href="#M" transform="matrix(10 0 0 -10 265.496 118.841)" fill="#0076ba"/></g><clipPath id="am"><path transform="matrix(1 0 0 -1 0 290)" d="M452.175 162.175h89.65v19.65h-89.65z"/></clipPath><g clip-path="url(#am)"><use xlink:href="#n" transform="matrix(10 0 0 -10 520.613 120.243)"/><symbol id="an"><path d="M.164 0a.04.04 0 0 0-.04.04.04.04 0 0 0 .011.029.04.04 0 0 0 .03.011C.174.08.184.076.191.07A.04.04 0 0 0 .204.04.038.038 0 0 0 .192.012.038.038 0 0 0 .164 0M.04 0a.038.038 0 0 0-.028.012A.038.038 0 0 0 0 .04a.04.04 0 0 0 .04.04A.04.04 0 0 0 .069.07.04.04 0 0 0 .08.04.04.04 0 0 0 .04 0z"/></symbol><use xlink:href="#an" transform="matrix(10 0 0 -10 527.068 121.762)" fill="#ee220c"/><use xlink:href="#o" transform="matrix(10 0 0 -10 525.867 120.287)"/><use xlink:href="#V" transform="matrix(10 0 0 -10 531.492 114.17)" fill="#ee220c"/><use xlink:href="#T" transform="matrix(10 0 0 -10 531.282 120.297)"/></g><clipPath id="ao"><path transform="matrix(1 0 0 -1 0 290)" d="M2.175 142.175h89.45v19.65H2.175z"/></clipPath><g clip-path="url(#ao)"><use xlink:href="#aj" transform="matrix(10 0 0 -10 6.595 141.484)"/><use xlink:href="#g" transform="matrix(10 0 0 -10 11.369 140.14)"/><use xlink:href="#K" transform="matrix(10 0 0 -10 17.469 140.268)"/></g><clipPath id="ap"><path transform="matrix(1 0 0 -1 0 290)" d="M92.375 142.175h89.45v19.65h-89.45z"/></clipPath><g clip-path="url(#ap)"><symbol id="aq"><path d="M.106.286A1.44 1.44 0 0 1 .094.23V.212L.088.062V.054A.009.009 0 0 0 .083.047.452.452 0 0 1 .052.022 2.063 2.063 0 0 0 .027.001a.098.098 0 0 0-.024 0L.02.187a.163.163 0 0 0 .01.045.1.1 0 0 0 .034.046.164.164 0 0 0 .021.016A.153.153 0 0 0 .096.29a.033.033 0 0 0 .01-.005m-.059.28A.1.1 0 0 1 .061.543.055.055 0 0 1 .077.531.08.08 0 0 1 .1.526.367.367 0 0 1 .127.525h.201A.25.25 0 0 0 .38.52.087.087 0 0 0 .413.507.043.043 0 0 0 .43.486a.076.076 0 0 0 .006-.03A.142.142 0 0 0 .43.42L.42.376A1.168 1.168 0 0 1 .437.148L.443.111A.202.202 0 0 0 .446.084c0-.006 0-.011-.002-.015A.736.736 0 0 1 .4.001a.123.123 0 0 0-.027 0 .635.635 0 0 0-.01.105.725.725 0 0 0 0 .035v.073a7.813 7.813 0 0 0 .002.18.022.022 0 0 1-.007.013.029.029 0 0 1-.015.007.152.152 0 0 1-.027.002H.092L.058.417a.103.103 0 0 0-.03.007.05.05 0 0 0-.02.016A.044.044 0 0 0 0 .467l.001.014a.343.343 0 0 0 .014.05.73.73 0 0 0 .01.031.044.044 0 0 0 .022.004z"/></symbol><use xlink:href="#aq" transform="matrix(10 0 0 -10 155.57 141.243)" fill="#0076ba"/><use xlink:href="#S" transform="matrix(10 0 0 -10 163.284 144.002)" fill="#0076ba"/><use xlink:href="#n" transform="matrix(10 0 0 -10 160.613 141.243)"/><use xlink:href="#P" transform="matrix(10 0 0 -10 167.688 144.002)" fill="#ee220c"/><use xlink:href="#o" transform="matrix(10 0 0 -10 165.867 141.287)"/><symbol id="ar"><path d="M.042.005 0 0v.194L.042.2V.005z"/></symbol><use xlink:href="#ar" transform="matrix(10 0 0 -10 173.445 143.978)" fill="#ee220c"/><use xlink:href="#S" transform="matrix(10 0 0 -10 174.27 144.002)" fill="#ee220c"/><use xlink:href="#T" transform="matrix(10 0 0 -10 171.282 141.297)"/></g><clipPath id="as"><path transform="matrix(1 0 0 -1 0 290)" d="M182.175 142.175h89.65v19.65h-89.65z"/></clipPath><g clip-path="url(#as)"><use xlink:href="#n" transform="matrix(10 0 0 -10 244.998 141.243)"/><use xlink:href="#V" transform="matrix(10 0 0 -10 250.706 135.17)" fill="#ee220c"/><use xlink:href="#o" transform="matrix(10 0 0 -10 250.252 141.287)"/><use xlink:href="#P" transform="matrix(10 0 0 -10 258.294 144.002)" fill="#ee220c"/><use xlink:href="#T" transform="matrix(10 0 0 -10 255.667 141.297)"/><use xlink:href="#N" transform="matrix(10 0 0 -10 264.666 142.762)" fill="#ee220c"/><use xlink:href="#O" transform="matrix(10 0 0 -10 262.273 141.253)" fill="#0076ba"/></g><clipPath id="at"><path transform="matrix(1 0 0 -1 0 290)" d="M452.175 142.175h89.65v19.65h-89.65z"/></clipPath><g clip-path="url(#at)"><symbol id="au"><path d="M.372.417H.178A.68.68 0 0 1 .148.34.207.207 0 0 1 .156.213 1.01 1.01 0 0 1 .2.1 1.727 1.727 0 0 1 .19.077L.186.057A1.835 1.835 0 0 1 .173.012a.39.39 0 0 1-.125 0C.034.008.025.005.02 0a.066.066 0 0 0-.011.003A.02.02 0 0 0 0 .009a.485.485 0 0 0 .036.089.04.04 0 0 0 .014.008.1.1 0 0 0 .022.007c.01.001.02.003.033.003a1.38 1.38 0 0 0-.024.088.29.29 0 0 0-.004.046c0 .008 0 .017.002.027a.346.346 0 0 0 .024.08l.024.06a.28.28 0 0 0-.03.002.09.09 0 0 0-.024.008.05.05 0 0 0-.017.016.046.046 0 0 0-.007.025.343.343 0 0 0 .015.063.73.73 0 0 0 .01.032.044.044 0 0 0 .022.004A.1.1 0 0 1 .11.544.055.055 0 0 1 .126.532.08.08 0 0 1 .148.527.367.367 0 0 1 .177.526h.207A.19.19 0 0 0 .433.52.09.09 0 0 0 .47.501.08.08 0 0 0 .494.468a.134.134 0 0 0 .008-.05A.325.325 0 0 0 .5.373.867.867 0 0 1 .502.237L.513.149.52.112A.202.202 0 0 0 .52.085c0-.006 0-.011-.002-.015A.503.503 0 0 1 .476.002a.123.123 0 0 0-.027 0 .635.635 0 0 0-.01.105 5.301 5.301 0 0 0 .003.238c.001.012 0 .022-.002.03a.046.046 0 0 1-.01.023.052.052 0 0 1-.023.014.106.106 0 0 1-.035.005z"/></symbol><use xlink:href="#au" transform="matrix(10 0 0 -10 514.915 141.253)" fill="#0076ba"/><use xlink:href="#W" transform="matrix(10 0 0 -10 523.098 143.953)" fill="#ee220c"/><use xlink:href="#n" transform="matrix(10 0 0 -10 520.613 141.243)"/><use xlink:href="#W" transform="matrix(10 0 0 -10 527.01 143.953)" fill="#ee220c"/><use xlink:href="#o" transform="matrix(10 0 0 -10 525.867 141.287)"/><use xlink:href="#V" transform="matrix(10 0 0 -10 531.492 135.17)" fill="#ee220c"/><use xlink:href="#T" transform="matrix(10 0 0 -10 531.282 141.297)"/></g><clipPath id="av"><path transform="matrix(1 0 0 -1 0 290)" d="M2.175 122.175h89.45v19.65H2.175z"/></clipPath><g clip-path="url(#av)"><use xlink:href="#J" transform="matrix(10 0 0 -10 6.946 160.14)"/><use xlink:href="#F" transform="matrix(10 0 0 -10 11.369 160.14)"/></g><clipPath id="aw"><path transform="matrix(1 0 0 -1 0 290)" d="M92.375 122.175h89.45v19.65h-89.45z"/></clipPath><g clip-path="url(#aw)"><symbol id="ax"><path d="M.125.001a.661.661 0 0 0-.003.065A1.726 1.726 0 0 0 .128.34a.562.562 0 0 1 .001.04.019.019 0 0 1-.003.012.024.024 0 0 1-.01.007.052.052 0 0 1-.013.006.17.17 0 0 0-.076.025.057.057 0 0 0-.018.014.035.035 0 0 0-.006.02l.003.02A.428.428 0 0 0 .04.566a.02.02 0 0 0 .01.002.05.05 0 0 0 .012 0 .068.068 0 0 1 .008-.02.049.049 0 0 1 .014-.012.809.809 0 0 1 .08-.026A.065.065 0 0 0 .18.5.02.02 0 0 0 .188.492.024.024 0 0 0 .19.482C.19.478.19.473.188.467A.832.832 0 0 1 .182.247 1.9 1.9 0 0 1 .2.112.224.224 0 0 0 .202.084L.2.069A3.433 3.433 0 0 1 .153.001a.123.123 0 0 0-.028 0M0 .264c0 .012.004.021.011.028A.04.04 0 0 0 .04.304C.051.304.06.3.068.292A.038.038 0 0 0 .08.264a.04.04 0 0 0-.04-.04.04.04 0 0 0-.029.011.04.04 0 0 0-.011.03z"/></symbol><symbol id="ay"><path d="M.137.572a.07.07 0 0 1 .008-.02A.041.041 0 0 1 .157.54a.106.106 0 0 1 .02-.01l.03-.009A.236.236 0 0 0 .242.509.083.083 0 0 0 .26.497a.03.03 0 0 0 .01-.013A.033.033 0 0 0 .274.47a.76.76 0 0 0-.01-.044.408.408 0 0 1-.01-.185 1.04 1.04 0 0 1 .03-.136L.281.102.275.08A.622.622 0 0 1 .259.018.005.005 0 0 0 .257.015a.01.01 0 0 0-.003 0H.082A.452.452 0 0 1 .039.007.106.106 0 0 1 .019 0a.066.066 0 0 0-.01.003A.02.02 0 0 0 0 .009a.411.411 0 0 0 .03.08C.034.1.04.107.05.113.06.117.076.12.097.12H.2a2.216 2.216 0 0 0-.008.103 1.318 1.318 0 0 0 .01.145.117.117 0 0 1 .002.017.015.015 0 0 1-.003.01.024.024 0 0 1-.01.007 49.035 49.035 0 0 1-.064.02.17.17 0 0 0-.026.01.053.053 0 0 0-.017.015.035.035 0 0 0-.005.02.508.508 0 0 0 .035.103.02.02 0 0 0 .01.002.05.05 0 0 0 .012 0z"/></symbol><use xlink:href="#ax" transform="matrix(10 0 0 -10 154.73 161.243)" fill="#0076ba"/><use xlink:href="#ay" transform="matrix(10 0 0 -10 157.253 161.278)" fill="#0076ba"/><use xlink:href="#P" transform="matrix(10 0 0 -10 163.972 164.002)"/><use xlink:href="#n" transform="matrix(10 0 0 -10 160.613 161.243)"/><use xlink:href="#Q" transform="matrix(10 0 0 -10 167.698 155.164)" fill="#ee220c"/><use xlink:href="#R" transform="matrix(10 0 0 -10 167.195 162.542)" fill="#ee220c"/><use xlink:href="#o" transform="matrix(10 0 0 -10 165.867 161.287)"/><use xlink:href="#S" transform="matrix(10 0 0 -10 173.416 164.002)" fill="#ee220c"/><use xlink:href="#T" transform="matrix(10 0 0 -10 171.282 161.297)"/></g><clipPath id="az"><path transform="matrix(1 0 0 -1 0 290)" d="M182.175 122.175h89.65v19.65h-89.65z"/></clipPath><g clip-path="url(#az)"><use xlink:href="#n" transform="matrix(10 0 0 -10 247.669 161.243)"/><use xlink:href="#V" transform="matrix(10 0 0 -10 253.377 155.17)" fill="#ee220c"/><use xlink:href="#o" transform="matrix(10 0 0 -10 252.923 161.287)"/><use xlink:href="#P" transform="matrix(10 0 0 -10 260.965 164.002)" fill="#ee220c"/><use xlink:href="#T" transform="matrix(10 0 0 -10 258.338 161.297)"/><use xlink:href="#N" transform="matrix(10 0 0 -10 265.652 162.762)" fill="#ee220c"/><use xlink:href="#ay" transform="matrix(10 0 0 -10 264.612 161.278)" fill="#0076ba"/></g><clipPath id="aA"><path transform="matrix(1 0 0 -1 0 290)" d="M2.175 102.175h89.45v19.65H2.175z"/></clipPath><g clip-path="url(#aA)"><use xlink:href="#Z" transform="matrix(10 0 0 -10 6.468 180.14)"/><use xlink:href="#aa" transform="matrix(10 0 0 -10 11.251 180.177)"/><use xlink:href="#F" transform="matrix(10 0 0 -10 20.26 180.14)"/></g><clipPath id="aB"><path transform="matrix(1 0 0 -1 0 290)" d="M92.375 102.175h89.45v19.65h-89.45z"/></clipPath><g clip-path="url(#aB)"><symbol id="aC"><path d="M.063.407c-.024 0-.04.005-.05.012A.044.044 0 0 0 0 .453a.427.427 0 0 0 .027.098.044.044 0 0 0 .022.004.1.1 0 0 1 .013-.022A.055.055 0 0 1 .08.52.08.08 0 0 1 .101.515a.367.367 0 0 1 .028 0h.205A.132.132 0 0 0 .402.5.085.085 0 0 0 .438.458.196.196 0 0 0 .453.39 1.265 1.265 0 0 0 .448.143.841.841 0 0 0 .422.005C.422.002.42 0 .415 0H.06C.052 0 .047.003.045.01a.73.73 0 0 0-.018.147c0 .046.003.09.01.131l.026.119M.108.405A1.132 1.132 0 0 1 .086.198c0-.02 0-.037.003-.05a.063.063 0 0 1 .01-.026.032.032 0 0 1 .017-.013.121.121 0 0 1 .026-.002h.21c.013 0 .022.003.028.01a.057.057 0 0 1 .014.025c.003.01.005.022.005.036a1.893 1.893 0 0 1-.002.13.19.19 0 0 1-.01.057.056.056 0 0 1-.024.031.09.09 0 0 1-.045.01h-.21z"/></symbol><use xlink:href="#aC" transform="matrix(10 0 0 -10 149.597 181.136)" fill="#0076ba"/><use xlink:href="#W" transform="matrix(10 0 0 -10 156.629 183.953)" fill="#0076ba"/><use xlink:href="#O" transform="matrix(10 0 0 -10 154.915 181.253)" fill="#0076ba"/><use xlink:href="#P" transform="matrix(10 0 0 -10 163.972 184.002)"/><use xlink:href="#n" transform="matrix(10 0 0 -10 160.613 181.243)"/><use xlink:href="#R" transform="matrix(10 0 0 -10 167.195 182.542)" fill="#ee220c"/><use xlink:href="#o" transform="matrix(10 0 0 -10 165.867 181.287)"/><use xlink:href="#P" transform="matrix(10 0 0 -10 173.909 184.002)" fill="#ee220c"/><use xlink:href="#T" transform="matrix(10 0 0 -10 171.282 181.297)"/></g><clipPath id="aD"><path transform="matrix(1 0 0 -1 0 290)" d="M182.175 102.175h89.65v19.65h-89.65z"/></clipPath><g clip-path="url(#aD)"><use xlink:href="#ax" transform="matrix(10 0 0 -10 242.449 181.243)" fill="#0076ba"/><use xlink:href="#n" transform="matrix(10 0 0 -10 244.998 181.243)"/><use xlink:href="#P" transform="matrix(10 0 0 -10 252.073 184.002)" fill="#ee220c"/><use xlink:href="#o" transform="matrix(10 0 0 -10 250.252 181.287)"/><use xlink:href="#P" transform="matrix(10 0 0 -10 258.294 184.002)" fill="#ee220c"/><use xlink:href="#T" transform="matrix(10 0 0 -10 255.667 181.297)"/><use xlink:href="#N" transform="matrix(10 0 0 -10 264.666 182.762)" fill="#ee220c"/><use xlink:href="#O" transform="matrix(10 0 0 -10 262.273 181.253)" fill="#0076ba"/></g><clipPath id="aE"><path transform="matrix(1 0 0 -1 0 290)" d="M362.175 102.175h89.65v19.65h-89.65z"/></clipPath><g clip-path="url(#aE)"><use xlink:href="#ax" transform="matrix(10 0 0 -10 428.064 180.243)" fill="#0076ba"/><use xlink:href="#n" transform="matrix(10 0 0 -10 430.613 180.243)"/><use xlink:href="#P" transform="matrix(10 0 0 -10 437.688 183.002)" fill="#ee220c"/><use xlink:href="#o" transform="matrix(10 0 0 -10 435.867 180.287)"/><use xlink:href="#N" transform="matrix(10 0 0 -10 443.909 181.762)" fill="#ee220c"/><use xlink:href="#T" transform="matrix(10 0 0 -10 441.282 180.297)"/></g><clipPath id="aF"><path transform="matrix(1 0 0 -1 0 290)" d="M2.175 82.175h89.45v19.65H2.175z"/></clipPath><g clip-path="url(#aF)"><use xlink:href="#Z" transform="matrix(10 0 0 -10 6.468 200.14)"/><use xlink:href="#g" transform="matrix(10 0 0 -10 11.369 200.14)"/><use xlink:href="#F" transform="matrix(10 0 0 -10 17.116 200.14)"/></g><clipPath id="aG"><path transform="matrix(1 0 0 -1 0 290)" d="M92.375 82.175h89.45v19.65h-89.45z"/></clipPath><g clip-path="url(#aG)"><symbol id="aH"><path d="M.095.001a.123.123 0 0 0-.027 0A17.613 17.613 0 0 1 .06.117a4.068 4.068 0 0 0 0 .272.474.474 0 0 0 .014.083A.489.489 0 0 0 .11.56a.018.018 0 0 1 .002.006V.57C.113.575.11.58.106.582a.121.121 0 0 1-.03.011 1.112 1.112 0 0 0-.031.01.128.128 0 0 0-.024.01.048.048 0 0 0-.015.014.036.036 0 0 0-.005.02l.003.019a.428.428 0 0 0 .032.083.02.02 0 0 0 .01.002.05.05 0 0 0 .013 0A.1.1 0 0 1 .065.73.038.038 0 0 1 .077.719 1.187 1.187 0 0 1 .127.7.25.25 0 0 0 .158.689a.074.074 0 0 0 .02-.012.032.032 0 0 0 .014-.026.1.1 0 0 0-.007-.033.679.679 0 0 0-.018-.044A.954.954 0 0 1 .131.48a.328.328 0 0 1-.01-.091.956.956 0 0 1 .006-.127 5.283 5.283 0 0 1 .02-.185c0-.007 0-.011-.002-.014A29681.203 29681.203 0 0 1 .095 0z"/></symbol><use xlink:href="#aH" transform="matrix(10 0 0 -10 152.58 203.07)" fill="#0076ba"/><use xlink:href="#W" transform="matrix(10 0 0 -10 156.629 203.953)" fill="#0076ba"/><use xlink:href="#O" transform="matrix(10 0 0 -10 154.915 201.253)" fill="#0076ba"/><use xlink:href="#P" transform="matrix(10 0 0 -10 163.972 204.002)"/><use xlink:href="#n" transform="matrix(10 0 0 -10 160.613 201.243)"/><use xlink:href="#R" transform="matrix(10 0 0 -10 167.195 202.542)" fill="#ee220c"/><use xlink:href="#o" transform="matrix(10 0 0 -10 165.867 201.287)"/><use xlink:href="#P" transform="matrix(10 0 0 -10 173.909 204.002)" fill="#ee220c"/><use xlink:href="#T" transform="matrix(10 0 0 -10 171.282 201.297)"/></g><clipPath id="aI"><path transform="matrix(1 0 0 -1 0 290)" d="M182.175 82.175h89.65v19.65h-89.65z"/></clipPath><g clip-path="url(#aI)"><use xlink:href="#aq" transform="matrix(10 0 0 -10 236.619 201.243)" fill="#0076ba"/><use xlink:href="#S" transform="matrix(10 0 0 -10 242.185 204.002)" fill="#0076ba"/><use xlink:href="#ay" transform="matrix(10 0 0 -10 241.636 201.278)" fill="#0076ba"/><use xlink:href="#P" transform="matrix(10 0 0 -10 248.357 204.002)"/><use xlink:href="#n" transform="matrix(10 0 0 -10 244.998 201.243)"/><use xlink:href="#V" transform="matrix(10 0 0 -10 250.706 195.17)" fill="#ee220c"/><use xlink:href="#o" transform="matrix(10 0 0 -10 250.252 201.287)"/><use xlink:href="#P" transform="matrix(10 0 0 -10 258.294 204.002)" fill="#ee220c"/><use xlink:href="#T" transform="matrix(10 0 0 -10 255.667 201.297)"/><use xlink:href="#N" transform="matrix(10 0 0 -10 264.666 202.762)" fill="#ee220c"/><use xlink:href="#O" transform="matrix(10 0 0 -10 262.273 201.253)" fill="#0076ba"/></g><clipPath id="aJ"><path transform="matrix(1 0 0 -1 0 290)" d="M362.175 82.175h89.65v19.65h-89.65z"/></clipPath><g clip-path="url(#aJ)"><use xlink:href="#aq" transform="matrix(10 0 0 -10 422.234 200.243)" fill="#0076ba"/><use xlink:href="#S" transform="matrix(10 0 0 -10 427.8 203.002)" fill="#0076ba"/><use xlink:href="#ay" transform="matrix(10 0 0 -10 427.251 200.278)" fill="#0076ba"/><use xlink:href="#P" transform="matrix(10 0 0 -10 433.972 203.002)"/><use xlink:href="#n" transform="matrix(10 0 0 -10 430.613 200.243)"/><use xlink:href="#V" transform="matrix(10 0 0 -10 436.321 194.17)" fill="#ee220c"/><use xlink:href="#o" transform="matrix(10 0 0 -10 435.867 200.287)"/><use xlink:href="#P" transform="matrix(10 0 0 -10 443.909 203.002)" fill="#ee220c"/><use xlink:href="#T" transform="matrix(10 0 0 -10 441.282 200.297)"/></g><clipPath id="aK"><path transform="matrix(1 0 0 -1 0 290)" d="M2.175 62.175h89.45v19.65H2.175z"/></clipPath><g clip-path="url(#aK)"><use xlink:href="#aj" transform="matrix(10 0 0 -10 6.595 221.484)"/><use xlink:href="#aa" transform="matrix(10 0 0 -10 11.251 220.177)"/><use xlink:href="#F" transform="matrix(10 0 0 -10 20.26 220.14)"/></g><clipPath id="aL"><path transform="matrix(1 0 0 -1 0 290)" d="M92.375 42.175h89.45v39.65h-89.45z"/></clipPath><g clip-path="url(#aL)"><use xlink:href="#ax" transform="matrix(10 0 0 -10 158.064 231.243)" fill="#0076ba"/><use xlink:href="#n" transform="matrix(10 0 0 -10 160.613 231.243)"/><use xlink:href="#P" transform="matrix(10 0 0 -10 167.688 234.002)" fill="#ee220c"/><use xlink:href="#o" transform="matrix(10 0 0 -10 165.867 231.287)"/><use xlink:href="#ar" transform="matrix(10 0 0 -10 173.445 233.978)" fill="#ee220c"/><use xlink:href="#S" transform="matrix(10 0 0 -10 174.27 234.002)" fill="#ee220c"/><use xlink:href="#T" transform="matrix(10 0 0 -10 171.282 231.297)"/></g><clipPath id="aM"><path transform="matrix(1 0 0 -1 0 290)" d="M182.175 62.175h89.65v19.65h-89.65z"/></clipPath><g clip-path="url(#aM)"><use xlink:href="#ax" transform="matrix(10 0 0 -10 245.442 221.243)" fill="#0076ba"/><use xlink:href="#n" transform="matrix(10 0 0 -10 247.991 221.243)"/><use xlink:href="#P" transform="matrix(10 0 0 -10 255.066 224.002)" fill="#ee220c"/><use xlink:href="#o" transform="matrix(10 0 0 -10 253.245 221.287)"/><use xlink:href="#P" transform="matrix(10 0 0 -10 261.287 224.002)" fill="#ee220c"/><use xlink:href="#T" transform="matrix(10 0 0 -10 258.66 221.297)"/><use xlink:href="#N" transform="matrix(10 0 0 -10 266.048 222.762)" fill="#ee220c"/><use xlink:href="#M" transform="matrix(10 0 0 -10 265.496 218.841)" fill="#0076ba"/></g><clipPath id="aN"><path transform="matrix(1 0 0 -1 0 290)" d="M452.175 62.175h89.65v19.65h-89.65z"/></clipPath><g clip-path="url(#aN)"><use xlink:href="#aC" transform="matrix(10 0 0 -10 512.957 221.136)" fill="#0076ba"/><use xlink:href="#M" transform="matrix(10 0 0 -10 518.064 218.841)" fill="#0076ba"/><use xlink:href="#N" transform="matrix(10 0 0 -10 523.97 222.762)" fill="#0076ba"/><use xlink:href="#n" transform="matrix(10 0 0 -10 520.613 221.243)"/><use xlink:href="#P" transform="matrix(10 0 0 -10 527.688 224.002)" fill="#ee220c"/><use xlink:href="#o" transform="matrix(10 0 0 -10 525.867 221.287)"/><use xlink:href="#V" transform="matrix(10 0 0 -10 531.492 215.17)" fill="#ee220c"/><use xlink:href="#T" transform="matrix(10 0 0 -10 531.282 221.297)"/></g><clipPath id="aO"><path transform="matrix(1 0 0 -1 0 290)" d="M2.175 42.175h89.45v19.65H2.175z"/></clipPath><g clip-path="url(#aO)"><use xlink:href="#aj" transform="matrix(10 0 0 -10 6.595 241.484)"/><use xlink:href="#g" transform="matrix(10 0 0 -10 11.369 240.14)"/><use xlink:href="#K" transform="matrix(10 0 0 -10 17.469 240.268)"/></g><clipPath id="aP"><path transform="matrix(1 0 0 -1 0 290)" d="M182.175 42.175h89.65v19.65h-89.65z"/></clipPath><g clip-path="url(#aP)"><use xlink:href="#aq" transform="matrix(10 0 0 -10 236.619 241.243)" fill="#0076ba"/><use xlink:href="#S" transform="matrix(10 0 0 -10 242.185 244.002)" fill="#0076ba"/><use xlink:href="#ay" transform="matrix(10 0 0 -10 241.636 241.278)" fill="#0076ba"/><use xlink:href="#P" transform="matrix(10 0 0 -10 248.357 244.002)"/><use xlink:href="#n" transform="matrix(10 0 0 -10 244.998 241.243)"/><use xlink:href="#V" transform="matrix(10 0 0 -10 250.706 235.17)" fill="#ee220c"/><use xlink:href="#o" transform="matrix(10 0 0 -10 250.252 241.287)"/><use xlink:href="#P" transform="matrix(10 0 0 -10 258.294 244.002)" fill="#ee220c"/><use xlink:href="#T" transform="matrix(10 0 0 -10 255.667 241.297)"/><use xlink:href="#N" transform="matrix(10 0 0 -10 264.666 242.762)" fill="#ee220c"/><use xlink:href="#O" transform="matrix(10 0 0 -10 262.273 241.253)" fill="#0076ba"/></g><clipPath id="aQ"><path transform="matrix(1 0 0 -1 0 290)" d="M452.175 42.175h89.65v19.65h-89.65z"/></clipPath><g clip-path="url(#aQ)"><symbol id="aR"><path d="M.122.001a.661.661 0 0 0-.004.065A1.726 1.726 0 0 0 .125.34a.562.562 0 0 1 .001.04.019.019 0 0 1-.003.012.024.024 0 0 1-.01.007A.052.052 0 0 1 .1.404a.17.17 0 0 0-.076.025.057.057 0 0 0-.018.014.035.035 0 0 0-.006.02l.003.02a.428.428 0 0 0 .032.083.02.02 0 0 0 .01.002.05.05 0 0 0 .013 0 .068.068 0 0 1 .007-.02A.049.049 0 0 1 .08.536.809.809 0 0 1 .16.51.065.065 0 0 0 .176.5.02.02 0 0 0 .184.492a.024.024 0 0 0 .003-.01L.185.467A.832.832 0 0 1 .18.247 1.9 1.9 0 0 1 .196.112.224.224 0 0 0 .198.084c0-.006 0-.011-.002-.015A3.433 3.433 0 0 1 .15.001a.123.123 0 0 0-.027 0M.118.647c0 .012.003.021.01.029a.04.04 0 0 0 .03.011c.011 0 .02-.003.028-.011A.038.038 0 0 0 .198.647a.04.04 0 0 0-.04-.04.04.04 0 0 0-.03.012.04.04 0 0 0-.01.028z"/></symbol><use xlink:href="#au" transform="matrix(10 0 0 -10 512.278 240.253)" fill="#0076ba"/><use xlink:href="#aR" transform="matrix(10 0 0 -10 518.098 240.243)" fill="#0076ba"/><use xlink:href="#n" transform="matrix(10 0 0 -10 520.613 240.243)"/><use xlink:href="#P" transform="matrix(10 0 0 -10 527.688 243.002)" fill="#ee220c"/><use xlink:href="#o" transform="matrix(10 0 0 -10 525.867 240.287)"/><use xlink:href="#V" transform="matrix(10 0 0 -10 531.492 234.17)" fill="#ee220c"/><use xlink:href="#T" transform="matrix(10 0 0 -10 531.282 240.297)"/></g><clipPath id="aS"><path transform="matrix(1 0 0 -1 0 290)" d="M2.175 22.175h89.45v19.65H2.175z"/></clipPath><g clip-path="url(#aS)"><symbol id="aT"><path d="m.432.47.01-.003A3.105 3.105 0 0 1 .44.364V.085A.037.037 0 0 1 .45.064.042.042 0 0 1 .47.054.396.396 0 0 1 .513.046a.057.057 0 0 0 0-.024A1.325 1.325 0 0 1 .37 0l-.01.004-.003.07C.304.023.252 0 .2 0 .158 0 .126.012.105.037.083.06.072.096.072.142v.187c0 .018 0 .032-.002.043 0 .011-.003.02-.007.026a.036.036 0 0 1-.021.014.255.255 0 0 1-.04.008.064.064 0 0 0 0 .025C.054.45.104.46.15.47L.16.467A3.105 3.105 0 0 1 .156.364v-.19C.157.132.165.102.18.086.194.07.216.062.246.062a.15.15 0 0 1 .108.049v.218L.353.372c0 .011-.004.02-.008.026a.036.036 0 0 1-.021.014.255.255 0 0 1-.04.008.064.064 0 0 0 0 .025C.337.45.386.46.432.47z"/></symbol><use xlink:href="#r" transform="matrix(10 0 0 -10 5.978 260.14)"/><use xlink:href="#e" transform="matrix(10 0 0 -10 12.765 260.224)"/><use xlink:href="#H" transform="matrix(10 0 0 -10 18.543 260.238)"/><use xlink:href="#h" transform="matrix(10 0 0 -10 22.498 260.238)"/><use xlink:href="#v" transform="matrix(10 0 0 -10 27.548 260.14)"/><use xlink:href="#aT" transform="matrix(10 0 0 -10 30.27 260.224)"/></g><clipPath id="aU"><path transform="matrix(1 0 0 -1 0 290)" d="M272.175 22.175h89.65v19.65h-89.65z"/></clipPath><g clip-path="url(#aU)"><use xlink:href="#n" transform="matrix(10 0 0 -10 337.976 260.243)"/><use xlink:href="#aR" transform="matrix(10 0 0 -10 342.937 260.243)" fill="#ee220c"/><use xlink:href="#o" transform="matrix(10 0 0 -10 345.867 260.287)"/><use xlink:href="#S" transform="matrix(10 0 0 -10 353.416 263.002)" fill="#ee220c"/><use xlink:href="#T" transform="matrix(10 0 0 -10 351.282 260.297)"/></g><clipPath id="aV"><path transform="matrix(1 0 0 -1 0 290)" d="M2.175 2.175h89.45v19.65H2.175z"/></clipPath><g clip-path="url(#aV)"><symbol id="aW"><path d="M.593.213A4.37 4.37 0 0 1 .577.041 1.238 1.238 0 0 0 .449.008.56.56 0 0 0 .35 0a.347.347 0 0 0-.257.093A.343.343 0 0 0 0 .346C0 .45.031.534.094.601c.063.066.148.1.253.1A.568.568 0 0 0 .526.673.129.129 0 0 1 .578.67C.58.615.583.554.588.49A.111.111 0 0 0 .556.487a.234.234 0 0 1-.07.134.206.206 0 0 1-.136.042.208.208 0 0 1-.177-.086.368.368 0 0 1-.064-.225.36.36 0 0 1 .067-.228.223.223 0 0 1 .186-.085c.054 0 .097.014.13.043a.25.25 0 0 1 .07.132h.031z"/></symbol><use xlink:href="#aW" transform="matrix(10 0 0 -10 6.639 280.268)"/><use xlink:href="#h" transform="matrix(10 0 0 -10 13.416 280.238)"/><use xlink:href="#z" transform="matrix(10 0 0 -10 18.56 280.14)"/><use xlink:href="#H" transform="matrix(10 0 0 -10 24.396 280.238)"/><use xlink:href="#i" transform="matrix(10 0 0 -10 28.2 280.224)"/><use xlink:href="#d" transform="matrix(10 0 0 -10 31.57 280.14)"/><use xlink:href="#aT" transform="matrix(10 0 0 -10 35.239 280.224)"/><use xlink:href="#w" transform="matrix(10 0 0 -10 40.809 280.14)"/><use xlink:href="#i" transform="matrix(10 0 0 -10 43.496 280.224)"/></g><clipPath id="aX"><path transform="matrix(1 0 0 -1 0 290)" d="M272.175 2.175h89.65v19.65h-89.65z"/></clipPath><g clip-path="url(#aX)"><use xlink:href="#n" transform="matrix(10 0 0 -10 329.036 280.243)"/><use xlink:href="#V" transform="matrix(10 0 0 -10 334.744 274.17)" fill="#ee220c"/><use xlink:href="#o" transform="matrix(10 0 0 -10 334.29 280.287)"/><use xlink:href="#P" transform="matrix(10 0 0 -10 342.332 283.002)" fill="#ee220c"/><use xlink:href="#T" transform="matrix(10 0 0 -10 339.705 280.297)"/><symbol id="aY"><path d="M.242.885C.132.797.076.653.076.453c0-.2.056-.345.166-.433L.222 0A.535.535 0 0 0 0 .453C0 .65.074.8.222.905l.02-.02z"/></symbol><use xlink:href="#aY" transform="matrix(10 0 0 -10 346.785 281.904)"/><symbol id="aZ"><path d="M.19.122a.341.341 0 0 1 .083.053c.021.02.037.04.049.06.011.02.02.039.023.057.004.02.006.037.006.054C.351.37.345.389.334.398.323.408.307.413.285.413H.11a.168.168 0 0 0-.046.005.074.074 0 0 0-.03.016A.06.06 0 0 0 .02.46a.116.116 0 0 0-.004.033l.001.06a.147.147 0 0 0 .021.072.515.515 0 0 0 .028.043c0 .004-.002.007-.006.01a.306.306 0 0 0-.047.04C.004.726 0 .734 0 .743c0 .005.002.01.005.017a.388.388 0 0 0 .056.066l.01-.001A.046.046 0 0 0 .081.82.057.057 0 0 1 .08.805L.083.793A.073.073 0 0 1 .095.781a2.212 2.212 0 0 0 .049-.04.028.028 0 0 0 .008-.019.036.036 0 0 0-.004-.016A.246.246 0 0 0 .12.671a.911.911 0 0 0-.03-.035A.087.087 0 0 1 .08.599.279.279 0 0 1 .082.548.03.03 0 0 1 .088.532.037.037 0 0 1 .106.524a.19.19 0 0 1 .03-.002h.168a.13.13 0 0 0 .051-.01.094.094 0 0 0 .056-.061.148.148 0 0 0 .006-.044.52.52 0 0 0-.06-.208A.64.64 0 0 0 .188 0a.072.072 0 0 0-.02.005 1.709 1.709 0 0 0 .024.117z"/></symbol><use xlink:href="#N" transform="matrix(10 0 0 -10 351.492 281.762)" fill="#ee220c"/><use xlink:href="#aZ" transform="matrix(10 0 0 -10 349.89 280.214)" fill="#ee220c"/><symbol id="ba"><path d="M.02.905A.519.519 0 0 0 .242.453.535.535 0 0 0 .02 0L0 .02c.11.088.166.232.166.433 0 .2-.055.344-.166.432l.02.02z"/></symbol><use xlink:href="#ba" transform="matrix(10 0 0 -10 354.866 281.904)"/></g><clipPath id="bb"><path transform="matrix(1 0 0 -1 0 290)" d="M0 0h544v290H0z"/></clipPath><g clip-path="url(#bb)" fill="none"><path stroke-width=".35" stroke="#a6a6a6" d="M182 27.5V48M182 48v240.5M272 27.5V48M272 48v240.5M362 27.5V48M362 48v240.5M452 27.5V48M452 48v240.5M1.5 68H92M92 68h450.5M1.5 88H92M92 88h450.5M1.5 108H92M92 108h450.5M1.5 128H92M92 128h450.5M1.5 148H92M92 148h450.5M1.5 168H92M92 168h450.5M1.5 188H92M92 188h450.5M1.5 208H92M92 208h450.5M1.5 228h91M181.5 228h361M1.5 248H92M92 248h450.5M1.5 268H92M92 268h450.5M92 27.5v20"/><path stroke-width=".75" stroke="#404040" d="M92 47.5v241M1.5 48h541"/><path stroke-width=".35" stroke="#a6a6a6" d="M2 27.5V48M2 48v240.5M542 27.5V48M542 48v240.5M1.5 28h541M1.5 288H92M92 288h450.5"/></g></svg>